<svg width="15" height="15" viewBox="0 0 15 15" fill="none" xmlns="http://www.w3.org/2000/svg">
<path d="M14.6162 6.83133L8.15429 0.27674C7.78904 -0.0922468 7.19531 -0.0922468 6.83006 0.27674C6.46387 0.645728 6.46387 1.24506 6.83006 1.61405L12.6327 7.49994L6.83006 13.3858C6.46387 13.7548 6.46387 14.3542 6.83006 14.7231C7.19624 15.0921 7.78904 15.0921 8.15429 14.7231L14.6152 8.16855C14.9683 7.81374 14.9692 7.18723 14.6162 6.83133Z" fill="white"/>
<path d="M8.06074 6.83133L1.5998 0.27674C1.23362 -0.0922468 0.640824 -0.0922468 0.275573 0.27674C-0.0906121 0.645728 -0.0906121 1.24506 0.275573 1.61405L6.07724 7.49994L0.274639 13.3858C-0.0915462 13.7548 -0.0915462 14.3542 0.274639 14.7231C0.640824 15.0921 1.23362 15.0921 1.59887 14.7231L8.0598 8.16855C8.41283 7.81374 8.41377 7.18723 8.06074 6.83133Z" fill="white"/>
</svg>
