<svg width="16" height="15" viewBox="0 0 16 15" fill="none" xmlns="http://www.w3.org/2000/svg">
<path d="M0.762744 6.83133L7.22462 0.27674C7.58987 -0.0922468 8.1836 -0.0922468 8.54885 0.27674C8.91503 0.645728 8.91503 1.24506 8.54885 1.61405L2.74625 7.49994L8.54885 13.3858C8.91503 13.7548 8.91503 14.3542 8.54885 14.7231C8.18266 15.0921 7.58987 15.0921 7.22462 14.7231L0.763678 8.16855C0.410648 7.81374 0.409715 7.18723 0.762744 6.83133Z" fill="white"/>
<path d="M7.31817 6.83133L13.7791 0.27674C14.1453 -0.0922468 14.7381 -0.0922468 15.1033 0.27674C15.4695 0.645728 15.4695 1.24506 15.1033 1.61405L9.30167 7.49994L15.1043 13.3858C15.4705 13.7548 15.4705 14.3542 15.1043 14.7231C14.7381 15.0921 14.1453 15.0921 13.78 14.7231L7.3191 8.16855C6.96607 7.81374 6.96514 7.18723 7.31817 6.83133Z" fill="white"/>
</svg>
