<svg width="23" height="23" viewBox="0 0 23 23" fill="none" xmlns="http://www.w3.org/2000/svg">
<path d="M15.0399 21.6659H6.49576V21.594C5.6692 21.4368 4.91002 21.028 4.30806 20.4126C3.54888 19.6309 3.1356 18.6067 3.1356 17.5241C3.1356 15.3229 4.8606 13.5171 7.03482 13.3868C7.72662 11.9942 9.16412 11.0913 10.7454 11.0913C12.3266 11.0913 13.7596 11.9942 14.4559 13.3868C16.6256 13.5126 18.3551 15.3229 18.3551 17.5241C18.3551 18.5977 17.9463 19.6175 17.2006 20.3946C16.6122 21.01 15.862 21.4188 15.0444 21.585V21.6659H15.0399ZM7.24146 20.3048H14.2628L14.3301 20.3003C15.8215 20.2329 16.9895 19.0155 16.9895 17.5196C16.9895 15.9833 15.7407 14.7344 14.2044 14.7344C14.1504 14.7344 14.0965 14.7344 14.0426 14.7389L13.535 14.7704L13.3643 14.2897C12.969 13.1891 11.9178 12.4479 10.7454 12.4479C9.57291 12.4479 8.52174 13.1891 8.12642 14.2897L7.95572 14.7704L7.4481 14.7389C7.38971 14.7344 7.3358 14.7344 7.28638 14.7344C5.75006 14.7344 4.50123 15.9833 4.50123 17.5196C4.50123 19.0335 5.68717 20.2553 7.20103 20.3003L7.24146 20.3048Z" fill="#757575"/>
<path d="M16.6975 15.6957C16.5358 15.7227 16.3651 15.6733 16.2483 15.5565L16.1854 15.4936C15.6598 14.9725 14.9635 14.685 14.2223 14.685C14.1684 14.685 14.1145 14.685 14.0606 14.6895L13.9348 14.6985C13.7102 14.7119 13.4991 14.5727 13.4227 14.3616L13.3778 14.2403C12.9825 13.1397 11.9313 12.3985 10.7588 12.3985C10.5163 12.3985 10.2692 12.4299 10.0356 12.4928L9.90982 12.5287C9.68521 12.5871 9.45161 12.4928 9.33482 12.2907L9.27192 12.1784C8.58911 10.9969 8.2522 9.65374 8.3061 8.28812C8.37349 6.53616 9.07876 4.87405 10.2827 3.60277C11.4866 2.33597 13.1038 1.54984 14.8333 1.38363L14.95 1.37015C15.1612 1.34769 15.3633 1.45999 15.4577 1.65316L15.561 1.86429C15.6553 2.05745 15.6194 2.28656 15.4756 2.43929L15.3993 2.52015C14.411 3.60277 13.8674 5.00433 13.8674 6.46878C13.8674 9.69866 16.4954 12.3311 19.7297 12.3311C19.9094 12.3311 20.0981 12.3221 20.2823 12.3041H20.2913L20.4036 12.2951C20.6102 12.2772 20.8079 12.3895 20.9022 12.5782L21.0055 12.7848C21.0999 12.9735 21.0684 13.1981 20.9291 13.3508L20.8483 13.4407C19.7791 14.6086 18.3372 15.4037 16.7874 15.6778L16.6975 15.6957ZM14.7254 13.3508C15.4352 13.4362 16.109 13.7012 16.684 14.128C16.8098 14.2223 16.976 14.2492 17.1288 14.2043C17.1332 14.2043 17.1422 14.1998 17.1467 14.1998C17.6139 14.0651 17.6409 13.4047 17.1872 13.234C16.2348 12.8746 15.3633 12.3176 14.6266 11.5764C13.261 10.2108 12.5108 8.40042 12.5108 6.46878C12.5108 5.77249 12.6096 5.08968 12.8028 4.43831C12.942 3.96663 12.403 3.5848 12.0077 3.88128C10.6375 4.90999 9.73911 6.52718 9.66724 8.33753C9.63579 9.15511 9.77505 9.9637 10.076 10.7184C10.1569 10.9205 10.3545 11.0463 10.5702 11.0373C10.6331 11.0328 10.7004 11.0328 10.7633 11.0328C12.2547 11.0328 13.6204 11.8414 14.3526 13.1037C14.4245 13.243 14.5682 13.3328 14.7254 13.3508Z" fill="#757575"/>
</svg>
