<svg width="21" height="21" viewBox="0 0 21 21" fill="none" xmlns="http://www.w3.org/2000/svg">
<path d="M20.1797 0H0.820312C0.367218 0 0 0.367218 0 0.820312V20.1797C0 20.6328 0.367218 21 0.820312 21H20.1797C20.6328 21 21 20.6328 21 20.1797V0.820312C21 0.367218 20.6328 0 20.1797 0ZM19.3594 19.3594H1.64062V1.64062H19.3594V19.3594ZM3.35751 5.62683C3.03708 5.30656 3.03708 4.78713 3.35751 4.4667C3.67779 4.14642 4.19721 4.14642 4.51749 4.4667L5.04861 4.99782L6.80283 3.24376C7.1231 2.92332 7.64252 2.92332 7.9628 3.24376C8.28323 3.56419 8.28323 4.08346 7.9628 4.40389L5.62875 6.73794C5.30832 7.05837 4.78889 7.05821 4.46862 6.73794L3.35751 5.62683ZM9.67969 4.99093C9.67969 4.53783 10.0469 4.17062 10.5 4.17062H17.0625C17.5156 4.17062 17.8828 4.53783 17.8828 4.99093C17.8828 5.44386 17.5156 5.81124 17.0625 5.81124H10.5C10.0469 5.81124 9.67969 5.44386 9.67969 4.99093ZM3.35751 16.6451C3.03708 16.3247 3.03708 15.8053 3.35751 15.485C3.67779 15.1647 4.19721 15.1646 4.51749 15.485L5.04861 16.0161L6.80283 14.2621C7.1231 13.9416 7.64252 13.9416 7.9628 14.2621C8.28323 14.5823 8.28323 15.1018 7.9628 15.4222L5.62875 17.7562C5.30832 18.0767 4.78889 18.0765 4.46862 17.7562L3.35751 16.6451ZM9.67969 16.0091C9.67969 15.5561 10.0469 15.1888 10.5 15.1888H17.0625C17.5156 15.1888 17.8828 15.5561 17.8828 16.0091C17.8828 16.4622 17.5156 16.8294 17.0625 16.8294H10.5C10.0469 16.8294 9.67969 16.4622 9.67969 16.0091ZM3.35751 11.1361C3.03708 10.8156 3.03708 10.2962 3.35751 9.97593C3.67779 9.65549 4.19721 9.65549 4.51749 9.97593L5.04861 10.507L6.80283 8.75283C7.1231 8.43256 7.64252 8.43256 7.9628 8.75283C8.28323 9.07327 8.28323 9.59269 7.9628 9.91296L5.62875 12.2472C5.30832 12.5674 4.78889 12.5674 4.46862 12.2472L3.35751 11.1361ZM9.67969 10.5C9.67969 10.0469 10.0469 9.67969 10.5 9.67969H17.0625C17.5156 9.67969 17.8828 10.0469 17.8828 10.5C17.8828 10.9531 17.5156 11.3203 17.0625 11.3203H10.5C10.0469 11.3203 9.67969 10.9531 9.67969 10.5Z" fill="#757575"/>
</svg>
