<svg width="21" height="21" viewBox="0 0 21 21" fill="none" xmlns="http://www.w3.org/2000/svg">
<path d="M0.617647 6.83529H2.92353H3.91177H4.67501L9.06352 10.7836C9.40755 11.1052 9.85658 11.2824 10.3279 11.2824H14.2882H14.4529C14.97 11.2824 15.456 11.0811 15.8215 10.7156C16.1869 10.3501 16.3882 9.86411 16.3882 9.34706C16.3882 9.31992 16.3882 9.21023 16.3882 9.18235C16.3882 8.02439 15.4462 7.08235 14.2882 7.08235H13.4901C13.836 6.31005 13.6929 5.37015 13.0598 4.73706L11.5536 3.23083C11.5534 3.23066 11.5532 3.2305 11.553 3.23034C11.5528 3.23009 11.5525 3.2298 11.5523 3.22951L9.0251 0.717624C8.89692 0.590553 8.75548 0.477729 8.60424 0.382035C8.20857 0.132094 7.75205 0 7.28412 0H3.91177H0.617647C0.276541 0 0 0.276541 0 0.617647V6.21765C0 6.55875 0.276541 6.83529 0.617647 6.83529ZM4.9 5.6H4.52941V1.23529H7.28412C7.51825 1.23529 7.74661 1.30138 7.94414 1.42615C8.01953 1.47383 8.09056 1.53061 8.15479 1.59427L10.6814 4.10562L12.1863 5.61054C12.5235 5.94769 12.5235 6.49625 12.1863 6.83336C12.0067 7.01297 11.8039 7.06844 11.6591 7.08231H11.4948C11.2946 7.06391 11.1063 6.97616 10.9635 6.83336L8.97178 4.84165C8.73061 4.60044 8.33951 4.60044 8.0983 4.84165C7.85709 5.08286 7.85709 5.47392 8.0983 5.71513L10.09 7.70688C10.4404 8.05729 10.9037 8.27211 11.3963 8.3139C11.4289 8.31765 11.686 8.31765 11.6861 8.31765H14.2882C14.7651 8.31765 15.1529 8.70553 15.1529 9.18235V9.34706C15.1529 9.53417 15.0801 9.70999 14.948 9.84212C14.8159 9.97426 14.64 10.0471 14.4529 10.0471H14.2882H10.3279C10.171 10.0471 10.0216 9.98818 9.90681 9.88087L5.29723 5.74469C5.25564 5.71505 5.19919 5.68087 5.12804 5.65279C5.03864 5.61754 4.95831 5.60469 4.9 5.6ZM1.23529 1.23529H3.29412V5.6H2.92353H1.23529V1.23529Z" fill="#757575"/>
<path d="M20.3823 19.7647L19.6823 19.7647V13.9599C20.4556 13.6431 21 12.7428 21 11.6529C21 10.345 19.5535 9.41673 19.3885 9.31523C19.19 9.19298 18.9395 9.19298 18.7409 9.31523C18.5759 9.41673 17.1294 10.345 17.1294 11.6529C17.1294 12.7428 17.6737 13.6431 18.447 13.9599V19.7646L14.4117 19.7645V17.5834C15.185 17.2667 15.7294 16.3663 15.7294 15.2765C15.7294 13.9685 14.2829 13.0403 14.1179 12.9388C13.9194 12.8165 13.6689 12.8165 13.4703 12.9388C13.3053 13.0403 11.8588 13.9685 11.8588 15.2765C11.8588 16.3663 12.4032 17.2667 13.1765 17.5834V19.7644L7.82351 19.7642V17.5834C8.59681 17.2667 9.14116 16.3663 9.14116 15.2765C9.14116 13.9685 7.69463 13.0403 7.52968 12.9388C7.33113 12.8165 7.08065 12.8165 6.88206 12.9388C6.7171 13.0403 5.27057 13.9685 5.27057 15.2765C5.27057 16.3663 5.81493 17.2667 6.58822 17.5834V19.7641L2.55293 19.764V13.9599C3.32622 13.6431 3.87057 12.7428 3.87057 11.6529C3.87057 10.345 2.42404 9.41673 2.25909 9.31523C2.06054 9.19298 1.81006 9.19298 1.61147 9.31523C1.44651 9.41673 -1.52588e-05 10.345 -1.52588e-05 11.6529C-1.52588e-05 12.7428 0.544338 13.6431 1.31763 13.9599V19.7639L0.617632 19.7639C0.276526 19.7639 -1.52588e-05 20.0404 -1.52588e-05 20.3815C-1.52588e-05 20.7226 0.276485 20.9992 0.617632 20.9992L1.92078 20.9992C1.92564 20.9994 1.93038 21 1.93528 21C1.94018 21 1.94491 20.9994 1.94977 20.9993L20.3823 21C20.7234 21 21 20.7235 21 20.3824C21 20.0412 20.7235 19.7647 20.3823 19.7647ZM19.0646 10.6062C19.3943 10.8828 19.7647 11.2945 19.7647 11.6529C19.7647 12.3364 19.3951 12.8471 19.0647 12.8471C18.7342 12.8471 18.3647 12.3364 18.3647 11.6529C18.3647 11.2943 18.7354 10.8824 19.0646 10.6062ZM13.794 14.2298C14.1237 14.5063 14.4941 14.918 14.4941 15.2765C14.4941 15.9599 14.1245 16.4706 13.7941 16.4706C13.4637 16.4706 13.0941 15.9599 13.0941 15.2765C13.0941 14.9179 13.4648 14.506 13.794 14.2298ZM7.20578 14.2298C7.53544 14.5063 7.90587 14.918 7.90587 15.2765C7.90587 15.9599 7.53631 16.4706 7.20587 16.4706C6.87543 16.4706 6.50587 15.9599 6.50587 15.2765C6.50587 14.9179 6.87658 14.506 7.20578 14.2298ZM1.9352 10.6062C2.26486 10.8828 2.63528 11.2945 2.63528 11.6529C2.63528 12.3364 2.26572 12.8471 1.93528 12.8471C1.60484 12.8471 1.23528 12.3364 1.23528 11.6529C1.23528 11.2943 1.60599 10.8824 1.9352 10.6062Z" fill="#757575"/>
<path d="M15.4396 5.51806C15.7808 5.51806 16.0575 5.24143 16.0575 4.9002C16.0575 4.55897 15.7808 4.28235 15.4396 4.28235C15.0984 4.28235 14.8217 4.55897 14.8217 4.9002C14.8217 5.24143 15.0984 5.51806 15.4396 5.51806Z" fill="#757575"/>
<path d="M17.7468 7.8239C18.0881 7.8239 18.3647 7.54728 18.3647 7.20605C18.3647 6.86482 18.0881 6.5882 17.7468 6.5882C17.4056 6.5882 17.129 6.86482 17.129 7.20605C17.129 7.54728 17.4056 7.8239 17.7468 7.8239Z" fill="#757575"/>
<path d="M18.736 4.85903C19.0772 4.85903 19.3539 4.58241 19.3539 4.24118C19.3539 3.89994 19.0772 3.62332 18.736 3.62332C18.3948 3.62332 18.1181 3.89994 18.1181 4.24118C18.1181 4.58241 18.3948 4.85903 18.736 4.85903Z" fill="#757575"/>
</svg>
