<svg width="27" height="27" viewBox="0 0 27 27" fill="none" xmlns="http://www.w3.org/2000/svg">
<path d="M25.092 12.69C25.092 12.636 25.092 12.582 25.092 12.528C24.93 10.422 24.174 8.47797 23.04 6.85797C22.932 6.69597 22.824 6.53397 22.716 6.42597L22.662 6.37197C22.554 6.26397 22.446 6.10197 22.338 5.99397C22.284 5.93997 22.284 5.93997 22.23 5.88597C22.122 5.77797 22.068 5.66997 21.96 5.56197C21.906 5.50797 21.852 5.45397 21.798 5.39997C21.69 5.29197 21.636 5.23797 21.528 5.12997C21.474 5.07597 21.42 5.02197 21.366 4.96797C21.312 4.91397 21.258 4.85997 21.204 4.80597C21.042 4.64397 20.826 4.48197 20.61 4.31997C20.61 4.37397 20.556 4.37397 20.502 4.31997C20.394 4.26597 20.286 4.15797 20.232 4.10397C20.178 4.04997 20.124 3.99597 20.07 3.99597C19.962 3.94197 19.908 3.88797 19.8 3.83397C19.746 3.77997 19.638 3.72597 19.584 3.67197C19.53 3.67197 19.53 3.61797 19.476 3.61797C19.422 3.56397 19.368 3.56397 19.314 3.50997C19.206 3.45597 19.152 3.40197 19.044 3.34797C18.936 3.29397 18.828 3.29397 18.774 3.23997C18.666 3.18597 18.612 3.13197 18.504 3.13197C18.396 3.07797 18.288 3.02397 18.234 3.02397C18.18 2.96997 18.072 2.96997 18.018 2.91597C17.91 2.86197 17.802 2.80797 17.694 2.80797C17.64 2.80797 17.586 2.75397 17.532 2.75397C17.424 2.69997 17.316 2.69997 17.208 2.64597C17.208 2.64597 17.208 2.64597 17.154 2.64597C16.938 2.59197 16.668 2.53797 16.452 2.42997C16.398 2.42997 16.29 2.37597 16.236 2.37597C15.966 2.26797 15.696 2.21397 15.426 2.15997C15.426 2.15997 15.426 2.15997 15.372 2.15997C15.156 2.15997 14.94 2.10597 14.67 2.10597C14.616 2.10597 14.562 2.10597 14.454 2.10597C14.184 2.10597 13.914 2.05197 13.698 2.05197C7.37998 2.05197 2.24998 7.18197 2.24998 13.5C2.24998 19.818 7.37998 24.948 13.698 24.948C20.016 24.948 25.146 19.818 25.146 13.5C25.146 13.23 25.146 12.96 25.092 12.69ZM14.508 3.45597C14.616 3.45597 14.778 3.45597 14.886 3.50997C14.94 3.50997 15.048 3.50997 15.102 3.50997C15.21 3.50997 15.372 3.56397 15.48 3.56397C15.534 3.56397 15.588 3.56397 15.642 3.56397L14.346 4.91397V3.45597C14.4 3.45597 14.454 3.45597 14.508 3.45597ZM17.694 4.21197C17.748 4.26597 17.856 4.31997 17.964 4.37397L14.346 8.15397V6.96597L17.1 4.04997C17.262 4.10397 17.424 4.15797 17.586 4.26597C17.64 4.21197 17.64 4.21197 17.694 4.21197ZM19.908 5.56197L19.962 5.61597L14.4 11.178V10.044L19.206 5.02197C19.206 5.02197 19.26 5.02197 19.26 5.07597C19.476 5.23797 19.692 5.39997 19.908 5.56197ZM20.988 6.53397L21.042 6.58797C21.096 6.69597 21.204 6.74997 21.258 6.85797C21.312 6.91197 21.312 6.91197 21.312 6.96597C21.42 7.07397 21.474 7.18197 21.582 7.28997L16.074 12.798H14.616L20.988 6.53397ZM22.392 8.42397C22.5 8.63997 22.608 8.85597 22.716 9.07197L18.936 12.798H17.91L22.392 8.42397ZM23.31 10.422C23.472 10.962 23.634 11.556 23.688 12.15C23.688 12.204 23.688 12.204 23.688 12.258C23.688 12.42 23.742 12.528 23.742 12.69C23.742 12.744 23.742 12.744 23.742 12.798H20.88L23.31 10.422ZM3.59998 13.5C3.59998 8.15397 7.75798 3.77997 12.996 3.45597V6.64197V9.77397V13.5V13.554V13.608V13.662V13.716C12.996 13.716 12.996 13.77 13.05 13.77V13.824L18.396 22.356C16.992 23.112 15.372 23.544 13.644 23.544C8.13598 23.598 3.59998 19.062 3.59998 13.5ZM19.638 21.654L14.94 14.148H23.796C23.58 17.28 21.96 19.98 19.638 21.654Z" fill="#646164"/>
</svg>
