<svg width="21" height="21" viewBox="0 0 21 21" fill="none" xmlns="http://www.w3.org/2000/svg">
<path d="M13.6562 10.9599C15.6333 11.3496 18.2487 11.2638 19.6804 9.8345C21.2417 8.27581 21.1849 5.44985 20.6911 3.30106C18.5856 2.8188 15.8213 2.7533 14.2411 4.2191C13.7108 2.47664 12.0704 0.982722 10.4998 0C8.93271 0.980501 7.28961 2.47397 6.75847 4.2191C5.17667 2.7519 2.41421 2.81876 0.30852 3.30106C-0.185384 5.4501 -0.240537 8.27733 1.31923 9.8345C2.75052 11.2634 5.36845 11.3492 7.34341 10.9599L9.88196 13.4079V14.8855C8.77565 15.0783 7.8238 15.7804 7.31313 16.7712C4.81433 15.6858 2.02139 17.7046 2.32495 20.4508L2.38563 21H18.614C18.6752 20.4459 18.6965 20.306 18.6965 20.0542C18.6965 17.4709 16.0313 15.7527 13.6865 16.7711C13.1758 15.7804 12.2239 15.0783 11.1176 14.8855V13.4078L13.6562 10.9599ZM19.5589 7.59495H17.1457L19.7347 5.09836C19.7941 5.81232 19.797 6.75162 19.5589 7.59495ZM16.7194 4.35121C17.4502 4.20002 18.2204 4.20359 18.8348 4.25113L16.7194 6.29096V4.35121ZM18.93 8.82854C18.0022 9.90543 16.202 10.0139 14.7814 9.87488L15.8665 8.82854H18.93ZM15.4837 4.81928V7.48249L14.0769 8.83911C13.9824 7.3301 14.1971 5.61721 15.4837 4.81928ZM11.1176 1.96363C11.5022 2.29045 11.9432 2.71391 12.3183 3.20085L11.1176 4.09977V1.96363ZM11.1176 5.64176L12.9519 4.26844C13.0925 4.6106 13.1771 4.96809 13.1771 5.33336C13.1771 6.6978 11.9988 7.95425 11.1176 8.70308V5.64176ZM11.1176 10.2666C11.497 9.99947 12.1851 9.47355 12.8348 8.76217C12.8561 9.22395 12.9044 9.62696 12.95 9.92574L11.1176 11.6927V10.2666H11.1176ZM4.28018 4.35117V6.29096L2.16485 4.25113C2.77927 4.20355 3.54948 4.19998 4.28018 4.35117ZM1.26486 5.09836L3.85387 7.59495H1.4407C1.20254 6.75158 1.20546 5.81224 1.26486 5.09836ZM2.06962 8.82854H5.13313L6.21815 9.87484C4.80387 10.0132 2.99923 9.90753 2.06962 8.82854ZM6.9227 8.83915L5.51587 7.48253V4.81928C6.80238 5.61717 7.01719 7.32985 6.9227 8.83915ZM9.88196 1.96363V5.60097L7.95223 4.5307C8.28216 3.48651 9.17708 2.56267 9.88196 1.96363ZM9.88196 7.01212V8.70313C9.12597 8.06063 8.15146 7.0446 7.88979 5.90723L9.88196 7.01212ZM8.04956 9.92578C8.09512 9.62701 8.14351 9.22399 8.16477 8.76222C8.81453 9.47359 9.5026 9.99951 9.88192 10.2667V11.6928L8.04956 9.92578ZM12.7712 17.8151L13 18.6906L13.7327 18.158C15.1646 17.1174 17.2242 17.9886 17.4432 19.7664H3.5564C3.69896 18.6093 4.68961 17.7104 5.88657 17.7104C6.79513 17.7104 7.24377 18.1413 7.99956 18.6906L8.22836 17.8151C8.49762 16.7851 9.43168 16.0656 10.4998 16.0656C11.5679 16.0656 12.502 16.7851 12.7712 17.8151Z" fill="#757575"/>
</svg>
