<svg width="23" height="23" viewBox="0 0 23 23" fill="none" xmlns="http://www.w3.org/2000/svg">
<path d="M7.54404 22.77C5.65804 22.724 4.14004 22.54 2.71404 21.85C2.43804 21.712 2.11604 21.528 1.88604 21.344C1.15004 20.792 0.736043 20.056 0.782043 19.044C0.874043 17.388 1.42604 15.916 2.53004 14.628C2.94404 14.168 3.45004 14.076 3.81804 14.444C4.18604 14.766 4.18604 15.272 3.81804 15.732C2.99004 16.744 2.53004 17.894 2.48404 19.182C2.48404 19.504 2.57604 19.78 2.85204 19.918C3.31204 20.194 3.81804 20.47 4.32404 20.608C6.48604 21.206 8.69404 21.252 10.764 20.332C12.144 19.78 12.006 19.55 11.822 18.354C11.684 17.296 11.224 16.422 10.534 15.594C10.166 15.18 10.166 14.674 10.534 14.352C10.902 14.03 11.454 14.076 11.822 14.49C13.018 15.916 13.616 17.526 13.616 19.366C13.616 20.194 13.156 20.792 12.512 21.252C11.546 21.988 10.442 22.31 9.24604 22.494C8.60204 22.678 7.91204 22.724 7.54404 22.77Z" fill="#5A575A"/>
<path d="M7.22205 14.168C4.87605 14.168 2.94405 12.236 2.94405 9.93601C2.94405 7.49801 4.83005 5.56601 7.26805 5.56601C9.61405 5.56601 11.5461 7.49801 11.5461 9.84401C11.5001 12.282 9.61405 14.168 7.22205 14.168ZM9.79805 9.89001C9.79805 8.46401 8.64805 7.31401 7.22205 7.31401C5.79605 7.31401 4.64605 8.46401 4.64605 9.89001C4.64605 11.316 5.79605 12.466 7.22205 12.466C8.64805 12.466 9.79805 11.316 9.79805 9.89001Z" fill="#5A575A"/>
<path d="M15.41 0.459991C17.802 0.459991 19.688 2.39199 19.688 4.78399C19.688 7.12999 17.71 9.06199 15.364 9.01599C13.018 9.01599 11.132 7.03799 11.132 4.73799C11.086 2.34599 13.018 0.459991 15.41 0.459991ZM17.94 4.73799C17.94 3.31199 16.79 2.16199 15.364 2.16199C13.938 2.16199 12.788 3.31199 12.788 4.73799C12.788 6.16399 13.938 7.31399 15.364 7.31399C16.79 7.31399 17.94 6.16399 17.94 4.73799Z" fill="#5A575A"/>
<path d="M15.732 17.618C15.594 17.618 15.502 17.618 15.364 17.618C14.904 17.618 14.49 17.25 14.49 16.79C14.49 16.33 14.858 15.916 15.318 15.916C16.192 15.916 17.112 15.824 17.986 15.594C18.538 15.41 19.09 15.134 19.642 14.904C19.964 14.72 20.102 14.444 20.102 14.03C20.01 12.742 19.55 11.592 18.722 10.58C18.492 10.35 18.4 10.074 18.446 9.75202C18.538 9.43002 18.722 9.20002 19.044 9.10802C19.366 9.01602 19.688 9.10802 19.918 9.38402C20.7 10.304 21.298 11.316 21.574 12.512C21.666 12.972 21.712 13.386 21.804 13.846C21.942 14.904 21.482 15.686 20.654 16.284C19.872 16.836 18.952 17.204 18.032 17.388C17.25 17.526 16.514 17.618 15.732 17.71C15.732 17.664 15.732 17.618 15.732 17.618Z" fill="#5A575A"/>
</svg>
