<svg width="23" height="23" viewBox="0 0 23 23" fill="none" xmlns="http://www.w3.org/2000/svg">
<path d="M12.4016 15.801C12.1486 16.0724 11.9186 16.3346 11.6748 16.5876C11.2792 16.997 11.201 17.457 11.2654 18.0228C11.4264 19.412 11.454 20.8058 11.1182 22.1766C11.0814 22.3238 11.0308 22.471 10.9848 22.6182C10.9342 22.7792 10.8284 22.8482 10.6674 22.793C10.5064 22.7378 10.5156 22.609 10.5386 22.4664C10.603 22.0524 10.7226 21.6292 10.6996 21.2198C10.6398 20.1802 10.1522 19.3476 9.31495 18.7266C9.17695 18.6254 9.12635 18.515 9.22295 18.377C9.31955 18.2298 9.44835 18.2528 9.58175 18.3448C10.0832 18.699 10.4742 19.1452 10.7548 19.688C10.787 19.7524 10.8238 19.8168 10.9158 19.872C10.8928 19.3568 10.8698 18.837 10.8376 18.3218C10.8238 18.1148 10.7732 17.9078 10.7778 17.7008C10.7824 17.4478 10.6766 17.2684 10.4696 17.1534C10.1614 16.9786 9.84395 16.8268 9.54035 16.652C9.16775 16.4404 8.77215 16.2518 8.45015 15.9804C7.86135 15.479 7.56695 14.8258 7.67275 13.9794C7.28635 13.9104 6.91375 13.8276 6.53655 13.7816C6.03515 13.7218 5.51995 13.7264 5.02315 13.6344C4.09855 13.4596 3.38095 12.9582 2.94395 12.1026C2.89795 12.0152 2.85655 11.9232 2.82895 11.8266C2.78295 11.684 2.79215 11.5368 2.96235 11.4816C3.12335 11.4264 3.22455 11.5138 3.27515 11.6702C3.47755 12.2774 3.88235 12.7144 4.46195 12.949C4.83915 13.1054 5.25315 13.1928 5.66255 13.248C6.32955 13.34 7.00575 13.3814 7.66815 13.4412C7.65895 13.4274 7.63135 13.3722 7.59915 13.3216C7.24495 12.7834 6.98735 12.2038 6.88155 11.5598C6.85855 11.4218 6.79875 11.3574 6.66075 11.3114C6.03515 11.109 5.42335 10.8698 4.90355 10.465C4.61835 10.2442 4.37915 9.95443 4.13535 9.67843C4.02955 9.55883 4.01115 9.40243 4.17675 9.30123C4.34235 9.19543 4.44355 9.29203 4.53095 9.43463C4.96335 10.1108 5.65335 10.4052 6.38015 10.7272C6.30655 10.4236 6.23295 10.1614 6.18235 9.89923C6.15475 9.77043 6.13635 9.63703 6.15475 9.50823C6.18695 9.27823 6.10875 9.14023 5.92015 8.99763C5.25315 8.49623 4.93115 7.81543 4.94955 6.97823C4.95415 6.84023 4.91735 6.75743 4.80695 6.67003C4.21355 6.21463 3.90995 5.58903 3.80415 4.86223C3.77195 4.71963 3.72135 4.64143 3.58795 4.57243C3.09575 4.32863 2.69555 3.97443 2.38275 3.52363C2.29075 3.38563 2.21715 3.24303 2.38275 3.11883C2.54835 2.99463 2.65875 3.10503 2.75995 3.24303C3.09115 3.69843 3.49595 4.05723 4.02955 4.25963C3.95135 3.90083 3.83635 3.56503 3.81335 3.22003C3.79495 2.81523 3.84095 2.40583 3.88695 2.00563C3.90995 1.81243 4.04335 1.74803 4.24575 1.80323C5.05995 2.02863 5.73615 2.45183 6.19615 3.17863C6.63775 2.76003 6.67455 2.88883 7.02875 3.22003C7.49795 3.65703 7.75555 4.22283 7.93035 4.83003C7.95335 4.91743 7.98095 5.00483 8.01775 5.14283C8.24315 4.79783 8.32595 4.45283 8.35355 4.09863C8.41795 3.30283 8.22475 2.55763 7.91195 1.83083C7.87055 1.73883 7.86135 1.59623 7.90275 1.51343C8.00395 1.34323 8.21095 1.38923 8.31215 1.60083C8.56975 2.12063 8.72615 2.67723 8.80435 3.25223C8.88255 3.81803 8.84115 4.37463 8.65715 4.91743C8.63875 4.96803 8.63875 5.04623 8.67095 5.08303C9.22755 5.80523 9.48515 6.64243 9.60475 7.53483C10.0096 7.44283 10.0188 7.44743 10.2212 7.83843C10.58 8.52843 10.7272 9.26903 10.787 10.0602C10.8376 9.97283 10.8882 9.89003 10.9296 9.80263C11.247 9.11263 11.339 8.38123 11.27 7.63603C11.2148 7.04263 11.0998 6.44923 10.9986 5.86043C10.971 5.69483 10.9986 5.57983 11.1596 5.53383C11.316 5.48783 11.408 5.57523 11.4494 5.72243C11.7852 6.99203 11.9186 8.26163 11.5368 9.54503C11.5046 9.64623 11.4862 9.76123 11.4264 9.84863C11.1964 10.1798 11.2332 10.488 11.385 10.8514C11.661 11.4954 11.7346 12.1854 11.684 12.8892C11.6794 12.9352 11.684 12.9812 11.684 13.0318C11.8772 13.0134 12.0014 12.9352 12.075 12.7558C12.1532 12.558 12.2774 12.3924 12.5488 12.5258C12.5626 12.236 12.5718 11.96 12.5948 11.6886C12.6408 11.109 12.7972 10.557 13.0456 10.028C13.0824 9.94523 13.0824 9.81643 13.0502 9.73363C12.4982 8.42723 12.558 7.09323 12.8524 5.74543C12.8846 5.59363 12.9812 5.48783 13.1514 5.53843C13.3124 5.58443 13.34 5.70863 13.3078 5.86963C13.1238 6.67923 13.0364 7.49803 13.1606 8.32143C13.2204 8.72623 13.34 9.11723 13.432 9.51743C13.455 9.51283 13.478 9.50823 13.501 9.50363C13.5746 9.13103 13.6252 8.75383 13.7264 8.39043C13.846 7.96263 13.9702 7.53023 14.329 7.22203C14.3658 7.18983 14.3704 7.09783 14.352 7.03803C13.9334 5.34063 14.1542 3.69383 14.743 2.07463C14.7614 2.02403 14.7706 1.95503 14.812 1.93203C14.8994 1.87683 15.0052 1.79403 15.0926 1.80783C15.2352 1.82623 15.2674 1.96423 15.2352 2.09763C15.2168 2.16663 15.1892 2.22643 15.1662 2.29083C14.7016 3.56963 14.513 4.88523 14.6786 6.23763C14.6924 6.35263 14.7154 6.46303 14.7706 6.57803C14.7936 6.50903 14.812 6.43543 14.8442 6.37103C15.0558 5.93863 15.249 5.49243 15.4882 5.07383C15.6768 4.75183 15.7826 4.75643 16.077 4.98183C16.1046 5.00483 16.1368 5.02783 16.192 5.06923C16.2334 4.92203 16.2702 4.79783 16.3116 4.66903C16.514 4.02503 16.8268 3.45003 17.3604 3.01763C17.4938 2.90723 17.6364 2.80603 17.8066 2.95323C17.9078 2.60823 17.9676 2.25863 18.1148 1.95043C18.3356 1.48123 18.6208 1.03963 18.8784 0.588829C18.9152 0.524429 18.975 0.469229 19.0302 0.418629C19.136 0.312829 19.2602 0.276029 19.3798 0.386429C19.5086 0.501429 19.481 0.630229 19.3706 0.749829C18.9336 1.21443 18.653 1.76183 18.4598 2.36443C18.4368 2.43343 18.4184 2.50703 18.4138 2.53923C18.8094 2.34143 19.2142 2.10683 19.6374 1.93203C20.1296 1.73423 20.2032 1.80783 20.2814 2.33683C20.3734 2.97623 20.2906 3.59263 20.033 4.20443C20.3136 4.24583 20.3366 4.42983 20.309 4.65063C20.2124 5.43263 19.895 6.09503 19.2464 6.57343C19.1958 6.61023 19.136 6.67923 19.1314 6.73443C19.0992 7.37843 18.86 7.94423 18.4782 8.48243C18.6208 8.44103 18.7634 8.40423 18.9014 8.35363C19.5362 8.11903 20.0652 7.72803 20.5068 7.22203C20.5712 7.14843 20.6724 7.08403 20.769 7.06563C20.8242 7.05643 20.9438 7.14383 20.953 7.19903C20.9668 7.29103 20.9438 7.41983 20.884 7.48883C20.424 8.05463 19.8628 8.49623 19.1728 8.74463C18.7956 8.88263 18.3908 8.96083 17.9952 9.07123C17.9584 9.31963 17.9446 9.61403 17.8664 9.89463C17.7974 10.143 17.6916 10.396 17.5444 10.603C17.365 10.8514 17.2546 11.1136 17.1856 11.408C17.0338 12.098 16.7118 12.7052 16.2564 13.2434C16.2334 13.271 16.2104 13.3032 16.192 13.3354C16.1874 13.34 16.192 13.3492 16.1966 13.3722C16.606 13.2434 16.9694 13.0364 17.3052 12.7788C17.8526 12.3602 18.2804 11.8404 18.5242 11.1872C18.584 11.0308 18.6668 10.9158 18.8462 10.9802C19.044 11.0492 19.021 11.2102 18.9612 11.3666C18.653 12.1762 18.1194 12.811 17.4018 13.2894C17.1534 13.455 16.8774 13.5792 16.6198 13.731C16.5554 13.7678 16.4818 13.8414 16.4726 13.9058C16.3116 15.0512 15.5848 15.6814 14.5636 16.0632C14.2554 16.1782 13.9518 16.3116 13.6574 16.4542C13.5746 16.4956 13.4872 16.6014 13.4688 16.6888C13.3446 17.3144 13.2342 17.94 13.1698 18.5886C13.2158 18.5242 13.2618 18.4598 13.3078 18.3954C14.1726 17.2362 15.2996 16.4174 16.6244 15.8608C16.7164 15.824 16.8636 15.8148 16.9464 15.8608C17.1212 15.962 17.0522 16.1782 16.8268 16.2748C16.1552 16.56 15.5388 16.928 14.9684 17.3788C14.0944 18.0688 13.3998 18.8968 13.0042 19.9502C12.9628 20.0606 12.9398 20.1802 12.9536 20.3182C13.0548 20.1848 13.1468 20.0514 13.2526 19.9226C13.8184 19.2142 14.5084 18.6576 15.2904 18.2068C15.433 18.124 15.5848 18.0596 15.6906 18.2436C15.801 18.4322 15.6676 18.5334 15.5158 18.6254C14.7476 19.067 14.0714 19.6236 13.5378 20.3366C13.0732 20.953 12.7604 21.6292 12.765 22.4204C12.765 22.5768 12.7144 22.701 12.5304 22.6964C12.3418 22.6918 12.2912 22.563 12.2958 22.3928C12.2958 22.379 12.2958 22.3606 12.2958 22.3468C12.3602 21.5004 12.397 20.654 12.5028 19.8168C12.627 18.8002 12.8156 17.7974 12.972 16.7854C12.9812 16.7348 12.9904 16.6704 12.972 16.629C12.8294 16.3024 12.6454 16.0172 12.4016 15.801ZM10.0924 14.4946C9.94975 13.9426 9.78415 13.3768 9.47135 12.8662C9.24595 12.5028 8.94695 12.213 8.54215 12.0704C8.17875 11.937 7.80155 11.8358 7.38755 11.707C7.79235 13.1514 8.59735 14.1542 10.0924 14.4946ZM8.42255 5.58903C7.75555 6.09963 7.52095 6.85403 7.70035 7.39683C7.88435 7.96263 8.22475 8.48243 8.49615 9.02063C8.65715 8.72163 8.78595 8.42263 8.97455 8.16963C9.11255 7.98103 9.14475 7.80163 9.11715 7.59003C9.10795 7.50723 9.08955 7.42443 9.08035 7.33703C8.98835 6.71143 8.75375 6.14103 8.42255 5.58903ZM9.17235 11.7898C8.93775 11.247 8.70315 10.7088 8.46855 10.1706C8.45475 10.1384 8.41795 10.1108 8.39035 10.0878C7.88895 9.66003 7.26795 9.55883 6.65615 9.42543C6.54115 10.143 6.94595 10.948 7.58075 11.2148C8.09135 11.431 8.62495 11.5966 9.17235 11.7898ZM15.7412 8.78143C15.9206 8.45483 16.0908 8.09143 16.307 7.76023C16.537 7.40603 16.5738 7.02883 16.5232 6.63323C16.4588 6.14563 16.2242 5.74543 15.8424 5.42343C15.4422 5.96163 15.1156 6.91383 15.1064 7.55783C15.1064 7.61763 15.1156 7.68203 15.1432 7.73263C15.3364 8.08223 15.5388 8.42723 15.7412 8.78143ZM9.62315 11.5644C9.81175 11.2884 9.98655 11.04 10.1476 10.7778C10.1936 10.7042 10.2258 10.603 10.2258 10.5202C10.2212 10.12 10.2258 9.71983 10.1752 9.32423C10.12 8.90103 10.005 8.48703 9.78875 8.10523C9.09415 8.52843 8.84575 9.45763 9.04815 10.166C9.18615 10.649 9.42535 11.0952 9.62315 11.5644ZM14.6096 11.2102C14.7568 10.879 14.9316 10.557 15.0374 10.2166C15.1386 9.89003 15.2214 9.54503 15.2168 9.20923C15.2122 8.63883 14.9454 8.16963 14.467 7.78783C14.076 8.60203 13.9242 9.42543 14.0346 10.2948C14.0392 10.3316 14.0622 10.3638 14.0806 10.396C14.2554 10.6582 14.4256 10.9204 14.6096 11.2102ZM8.06375 9.27823C7.77395 8.72163 7.50715 8.20643 7.23115 7.69583C7.19895 7.63603 7.11615 7.59003 7.04715 7.56703C6.52275 7.41063 5.98915 7.25883 5.45095 7.10703C5.44175 7.16683 5.43255 7.19903 5.43255 7.22663C5.43255 7.28643 5.43715 7.35083 5.44635 7.41063C5.58435 8.11443 5.97995 8.62043 6.64695 8.87343C7.08395 9.03903 7.54855 9.13103 8.06375 9.27823ZM14.2002 13.892C15.456 13.5884 16.5968 12.4062 16.652 11.3712C15.0972 11.7806 14.5038 12.3878 14.2002 13.892ZM10.465 13.9334C10.672 13.7448 10.8836 13.5654 11.0814 13.3768C11.1228 13.3354 11.155 13.2572 11.155 13.1974C11.1596 12.7604 11.1826 12.3188 11.1366 11.8864C11.0998 11.5368 10.9802 11.1918 10.8928 10.8284C10.212 11.27 9.88075 12.2084 10.1154 12.8892C10.1844 13.087 10.2442 13.2848 10.3086 13.4826C10.3684 13.6436 10.4236 13.8046 10.465 13.9334ZM13.731 13.5838C13.9058 13.0962 14.076 12.627 14.2416 12.1578C14.2646 12.098 14.2692 12.0152 14.2508 11.9554C14.1542 11.6518 14.076 11.3344 13.9334 11.0492C13.8138 10.8146 13.616 10.6214 13.4274 10.3776C13.0824 11.2194 12.9904 12.0152 13.1146 12.8386C13.1238 12.8938 13.1468 12.9582 13.1836 12.9996C13.3538 13.1928 13.5332 13.3768 13.731 13.5838ZM10.5846 16.5784C10.5432 16.353 10.4926 16.1414 10.465 15.9252C10.3914 15.3548 10.0188 15.0144 9.52655 14.8304C9.08955 14.6648 8.61575 14.5958 8.12355 14.4762C8.28455 15.2628 8.75375 15.755 9.41155 16.0816C9.77955 16.261 10.1706 16.4036 10.5846 16.5784ZM4.30095 4.79783C4.38375 6.03063 5.46015 6.84023 6.80335 6.88623C6.56415 6.48603 6.35255 6.08583 6.09495 5.71323C5.66715 5.09223 4.99555 4.93123 4.30095 4.79783ZM17.4202 9.28283C17.1258 9.32883 16.836 9.34263 16.5692 9.42543C16.307 9.50823 15.962 9.59563 15.8332 9.79803C15.5388 10.2626 15.3502 10.7962 15.1202 11.2976C15.4652 11.1872 15.7872 11.0906 16.1046 10.9802C16.33 10.902 16.5508 10.8146 16.7578 10.6996C17.1718 10.4696 17.503 9.74743 17.4202 9.28283ZM5.69935 4.67823C5.75915 4.36083 5.81895 4.05723 5.87415 3.74903C5.88335 3.69383 5.86495 3.62483 5.83735 3.57423C5.54295 3.00843 5.08295 2.63583 4.48955 2.41503C4.36535 2.36903 4.31015 2.41503 4.30095 2.53003C4.25955 3.10503 4.30555 3.66623 4.59995 4.18143C4.64135 4.25043 4.70115 4.32863 4.77015 4.35623C5.08295 4.47123 5.39575 4.57243 5.69935 4.67823ZM17.5582 3.49143C17.5352 3.50983 17.5076 3.52363 17.4846 3.54663C16.9694 4.07563 16.7302 4.72883 16.6244 5.44183C16.6152 5.49243 16.629 5.55223 16.6474 5.59823C16.7808 5.88803 16.9188 6.16863 17.0522 6.45843C17.25 6.15943 17.4248 5.82363 17.664 5.54303C18.1746 4.95423 17.9676 4.00663 17.5582 3.49143ZM7.14835 6.51823C7.30015 6.22383 7.42435 5.99383 7.53935 5.76383C7.56695 5.71323 7.59455 5.64423 7.58075 5.59363C7.44735 5.13363 7.33235 4.65983 7.14835 4.21823C7.03795 3.95603 6.81715 3.73983 6.62395 3.46843C6.28355 3.98823 6.16395 4.50343 6.36635 5.01403C6.57335 5.52923 6.87695 6.00303 7.14835 6.51823ZM16.2288 8.93323C16.813 8.86883 17.3466 8.80443 17.779 8.40883C18.1976 8.02703 18.4828 7.58543 18.5932 7.01043C18.2482 7.07483 17.9354 7.11623 17.6364 7.19443C17.4478 7.24043 17.1948 7.29103 17.1028 7.42443C16.7808 7.90283 16.5232 8.41343 16.2288 8.93323ZM12.4844 13.0778C12.0152 14.0392 12.1808 15.1478 13.1238 15.824C13.248 15.3502 13.3768 14.8764 13.4964 14.398C13.5102 14.3428 13.5102 14.2738 13.4872 14.2232C13.271 13.7402 12.9122 13.386 12.4844 13.0778ZM11.1182 16.4864C11.3942 16.1552 11.6472 15.8562 11.8956 15.5526C11.9876 15.4376 11.983 15.3134 11.9278 15.1662C11.845 14.9454 11.7852 14.7108 11.7622 14.4762C11.7346 14.191 11.7576 13.9012 11.7576 13.5746C11.2424 13.869 10.8744 14.2278 10.7456 14.7844C10.7364 14.8212 10.7318 14.8626 10.741 14.8948C10.856 15.41 10.9802 15.9206 11.1182 16.4864ZM13.6896 15.824C15.0328 15.4698 15.9206 14.7338 15.9114 13.9656C15.5434 14.0576 15.1754 14.1312 14.8212 14.2462C13.9288 14.536 13.8046 14.9638 13.6896 15.824ZM19.7846 2.41043C19.1038 2.62663 18.607 2.99923 18.3034 3.61103C18.2896 3.64323 18.2804 3.68923 18.2896 3.72143C18.3586 3.97903 18.4322 4.23203 18.5058 4.48503C18.7726 4.40683 19.0256 4.34703 19.2694 4.25963C19.366 4.22743 19.4718 4.14923 19.5224 4.06183C19.7984 3.56043 19.8352 3.01303 19.7846 2.41043ZM17.5582 6.63323C18.8554 6.63783 19.7754 5.55683 19.7386 4.71503C19.4442 4.78863 19.1544 4.84843 18.8692 4.93583C18.6116 5.01403 18.4046 5.15203 18.3172 5.43723C18.2758 5.57063 18.17 5.69023 18.0918 5.80983C17.9216 6.08123 17.7468 6.34803 17.5582 6.63323Z" fill="#757575"/>
<path d="M10.8287 4.41144C10.9391 4.56324 11.0449 4.65064 11.0587 4.74264C11.0771 4.88524 10.9575 5.00484 10.8195 4.97264C10.7321 4.95424 10.6125 4.82544 10.6033 4.73804C10.5941 4.65524 10.7183 4.56324 10.8287 4.41144Z" fill="white"/>
<path d="M3.8366 8.18334C3.8918 8.27534 4.0068 8.37654 3.993 8.45934C3.9792 8.54674 3.8458 8.61574 3.7676 8.68934C3.694 8.60654 3.5652 8.52834 3.556 8.44094C3.5468 8.35814 3.6664 8.26614 3.7308 8.17874C3.7722 8.17874 3.8044 8.18334 3.8366 8.18334Z" fill="white"/>
<path d="M15.3643 1.20069C15.3045 1.11329 15.2079 1.02589 15.1895 0.929291C15.1619 0.791291 15.2677 0.676291 15.4057 0.708491C15.4977 0.731491 15.6173 0.841891 15.6311 0.929291C15.6403 1.01209 15.5299 1.10869 15.4701 1.20069C15.4333 1.20069 15.4011 1.20069 15.3643 1.20069Z" fill="white"/>
<path d="M10.0926 14.4945C8.59758 14.1541 7.79258 13.1513 7.38778 11.7115C7.80178 11.8403 8.17898 11.9415 8.54238 12.0749C8.94718 12.2221 9.24618 12.5073 9.47158 12.8707C9.78438 13.3767 9.94998 13.9425 10.0926 14.4945Z" fill="#757575" fill-opacity="0.3"/>
<path d="M8.42261 5.58911C8.75381 6.14111 8.98841 6.71151 9.08041 7.33711C9.09421 7.41991 9.10801 7.50271 9.11721 7.59011C9.14021 7.80171 9.11261 7.98111 8.97461 8.16971C8.78602 8.42271 8.65721 8.72631 8.49621 9.02071C8.22481 8.48251 7.88902 7.96731 7.70042 7.39691C7.52102 6.84951 7.75561 6.09971 8.42261 5.58911Z" fill="#757575" fill-opacity="0.3"/>
<path d="M9.17253 11.7898C8.62513 11.592 8.09153 11.431 7.58093 11.2148C6.94153 10.9434 6.54133 10.143 6.65633 9.42535C7.26813 9.55875 7.88913 9.65995 8.39053 10.0878C8.41813 10.1108 8.45493 10.1384 8.46873 10.1706C8.70333 10.7088 8.93333 11.2516 9.17253 11.7898Z" fill="#757575" fill-opacity="0.3"/>
<path d="M15.7414 8.78137C15.539 8.42717 15.3366 8.08217 15.1434 7.73257C15.1158 7.68197 15.1066 7.61757 15.1066 7.55777C15.1158 6.91377 15.4378 5.96157 15.8426 5.42337C16.2198 5.74537 16.459 6.14097 16.5234 6.63317C16.574 7.02877 16.5372 7.40597 16.3072 7.76017C16.091 8.09137 15.9162 8.45477 15.7414 8.78137Z" fill="#757575" fill-opacity="0.3"/>
<path d="M9.62318 11.5644C9.42538 11.0906 9.18618 10.6444 9.05278 10.1706C8.85038 9.46217 9.09878 8.53297 9.79338 8.10977C10.0096 8.49157 10.1246 8.90557 10.1798 9.32877C10.2304 9.72437 10.2212 10.1246 10.2304 10.5248C10.2304 10.6122 10.1982 10.7088 10.1522 10.7824C9.98658 11.04 9.81178 11.2884 9.62318 11.5644Z" fill="#757575" fill-opacity="0.3"/>
<path d="M14.6096 11.2101C14.4256 10.9203 14.2554 10.6581 14.0852 10.3959C14.0668 10.3637 14.0438 10.3315 14.0392 10.2947C13.9288 9.42526 14.0852 8.60186 14.4716 7.78766C14.9454 8.16946 15.2122 8.63866 15.2214 9.20906C15.226 9.54486 15.1432 9.89446 15.042 10.2165C14.9316 10.5569 14.7568 10.8789 14.6096 11.2101Z" fill="#757575" fill-opacity="0.3"/>
<path d="M8.06415 9.27813C7.54895 9.13553 7.08435 9.03893 6.65195 8.87333C5.98495 8.62033 5.58475 8.11433 5.45135 7.41053C5.43755 7.35073 5.43755 7.28633 5.43755 7.22653C5.43755 7.19893 5.44675 7.16673 5.45595 7.10693C5.99875 7.26333 6.52775 7.41053 7.05215 7.56693C7.12115 7.58533 7.20395 7.63593 7.23615 7.69573C7.50755 8.20633 7.77435 8.72153 8.06415 9.27813Z" fill="#757575" fill-opacity="0.3"/>
<path d="M14.2007 13.8919C14.5043 12.3877 15.0977 11.7805 16.6525 11.3711C16.5973 12.4061 15.4519 13.5883 14.2007 13.8919Z" fill="#757575" fill-opacity="0.3"/>
<path d="M10.4654 13.9334C10.424 13.8046 10.3642 13.6436 10.3136 13.478C10.2492 13.2802 10.1894 13.0824 10.1204 12.8846C9.88124 12.2038 10.217 11.2654 10.8978 10.8238C10.9852 11.1872 11.1048 11.5322 11.1416 11.8818C11.1876 12.3142 11.16 12.7558 11.16 13.1928C11.16 13.2526 11.1278 13.3308 11.0864 13.3722C10.884 13.5654 10.677 13.7448 10.4654 13.9334Z" fill="#757575" fill-opacity="0.3"/>
<path d="M13.7312 13.5838C13.5334 13.3768 13.354 13.1882 13.1792 12.995C13.1424 12.9536 13.1194 12.8892 13.1102 12.834C12.986 12.0106 13.078 11.2148 13.423 10.373C13.6116 10.6168 13.814 10.81 13.929 11.0446C14.0716 11.3298 14.1498 11.6472 14.2464 11.9508C14.2648 12.0106 14.2602 12.0934 14.2372 12.1532C14.0762 12.627 13.906 13.0962 13.7312 13.5838Z" fill="#757575" fill-opacity="0.3"/>
<path d="M10.5849 16.5785C10.1709 16.4037 9.77987 16.2611 9.41187 16.0771C8.75867 15.7505 8.28947 15.2629 8.12387 14.4717C8.61147 14.5913 9.08527 14.6603 9.52687 14.8259C10.0191 15.0099 10.3871 15.3503 10.4653 15.9207C10.4929 16.1415 10.5435 16.3531 10.5849 16.5785Z" fill="#757575" fill-opacity="0.3"/>
<path d="M4.30205 4.79779C4.99665 4.93119 5.66825 5.09219 6.09605 5.71319C6.35365 6.08579 6.56525 6.48599 6.80445 6.88619C5.46125 6.84019 4.38945 6.02599 4.30205 4.79779Z" fill="#757575" fill-opacity="0.3"/>
<path d="M17.4204 9.28284C17.5032 9.74744 17.172 10.4696 16.758 10.6996C16.551 10.8146 16.3256 10.902 16.1048 10.9802C15.7874 11.0952 15.4654 11.1872 15.1204 11.2976C15.3504 10.7962 15.5344 10.2626 15.8334 9.79804C15.9622 9.59564 16.3072 9.50824 16.5694 9.42544C16.8362 9.34264 17.126 9.33344 17.4204 9.28284Z" fill="#757575" fill-opacity="0.3"/>
<path d="M5.69955 4.67811C5.39135 4.57231 5.07855 4.47111 4.77495 4.35611C4.70595 4.32851 4.64615 4.25031 4.60475 4.18131C4.31035 3.66611 4.26435 3.10491 4.30575 2.52991C4.31495 2.41491 4.37015 2.36891 4.49435 2.41491C5.08315 2.63571 5.54775 3.00831 5.84215 3.57411C5.86975 3.62471 5.88815 3.69371 5.87895 3.74891C5.82375 4.05711 5.75935 4.36071 5.69955 4.67811Z" fill="#757575" fill-opacity="0.3"/>
<path d="M17.5585 3.49121C17.9679 4.01101 18.1703 4.95401 17.6689 5.54281C17.4297 5.82341 17.2503 6.16381 17.0571 6.45821C16.9191 6.16841 16.7811 5.88321 16.6523 5.59801C16.6293 5.55201 16.6201 5.49221 16.6293 5.44161C16.7351 4.72861 16.9743 4.07541 17.4895 3.54641C17.5079 3.52341 17.5355 3.50961 17.5585 3.49121Z" fill="#757575" fill-opacity="0.3"/>
<path d="M7.14851 6.51815C6.87711 6.00295 6.57351 5.52915 6.36651 5.01395C6.15951 4.50335 6.28371 3.99275 6.62411 3.46835C6.81731 3.73515 7.03811 3.95135 7.14391 4.21815C7.32791 4.65975 7.44291 5.13355 7.57631 5.59355C7.59011 5.64415 7.56251 5.71315 7.53491 5.76375C7.42451 5.99375 7.30031 6.22375 7.14851 6.51815Z" fill="#757575" fill-opacity="0.3"/>
<path d="M16.229 8.93299C16.5234 8.41319 16.781 7.89799 17.103 7.42419C17.195 7.28619 17.448 7.24019 17.6366 7.19419C17.9402 7.11599 18.2484 7.07459 18.5934 7.01019C18.483 7.58519 18.1978 8.02679 17.7792 8.40859C17.3422 8.80879 16.8132 8.87319 16.229 8.93299Z" fill="#757575" fill-opacity="0.3"/>
<path d="M12.4845 13.0775C12.9123 13.3857 13.2711 13.7399 13.4873 14.2229C13.5103 14.2735 13.5103 14.3425 13.4965 14.3977C13.3769 14.8715 13.2481 15.3453 13.1239 15.8237C12.1809 15.1475 12.0153 14.0389 12.4845 13.0775Z" fill="#757575" fill-opacity="0.3"/>
<path d="M11.1186 16.4864C10.9852 15.9206 10.861 15.4054 10.7368 14.8948C10.7276 14.858 10.7322 14.8166 10.7414 14.7844C10.8748 14.2278 11.2382 13.869 11.7534 13.5746C11.7534 13.9058 11.7304 14.1956 11.758 14.4762C11.781 14.7108 11.8408 14.9454 11.9236 15.1662C11.9788 15.3134 11.9834 15.4376 11.8914 15.5526C11.6476 15.8562 11.3946 16.1552 11.1186 16.4864Z" fill="#757575" fill-opacity="0.3"/>
<path d="M13.6898 15.8239C13.8048 14.9637 13.929 14.5359 14.826 14.2461C15.1802 14.1311 15.5482 14.0621 15.9162 13.9655C15.9208 14.7383 15.033 15.4697 13.6898 15.8239Z" fill="#757575" fill-opacity="0.3"/>
<path d="M19.7845 2.41034C19.8351 3.01294 19.7983 3.56034 19.5223 4.06174C19.4763 4.14914 19.3659 4.22734 19.2693 4.25954C19.0255 4.34694 18.7725 4.40674 18.5057 4.48494C18.4321 4.23194 18.3585 3.97894 18.2895 3.72134C18.2803 3.68914 18.2895 3.64314 18.3033 3.61094C18.6069 2.99914 19.1037 2.62654 19.7845 2.41034Z" fill="#757575" fill-opacity="0.3"/>
<path d="M17.558 6.63308C17.7466 6.34788 17.9214 6.08108 18.0962 5.81428C18.1744 5.69008 18.2802 5.57508 18.3216 5.44168C18.409 5.15648 18.616 5.01848 18.8736 4.94028C19.1588 4.85288 19.4486 4.79308 19.743 4.71948C19.7752 5.55668 18.8552 6.63768 17.558 6.63308Z" fill="#757575" fill-opacity="0.3"/>
</svg>
