<svg width="17" height="18" viewBox="0 0 17 18" fill="none" xmlns="http://www.w3.org/2000/svg">
<path d="M8.89283 0.180588C8.62433 -0.0363623 8.23083 0.00540433 8.01392 0.273879C7.79692 0.542363 7.83867 0.935879 8.10717 1.15283L8.60717 1.55686H8.5C4.00677 1.55686 0.375 5.2344 0.375 9.75763C0.375 14.2808 4.00677 17.9584 8.5 17.9584C12.9932 17.9584 16.625 14.2808 16.625 9.75763C16.625 6.89691 15.173 4.3766 12.9716 2.90952C12.6843 2.7181 12.2963 2.79576 12.1049 3.083C11.9135 3.37023 11.9912 3.75826 12.2784 3.94969C14.1437 5.1928 15.375 7.32888 15.375 9.75763C15.375 13.6024 12.2911 16.7084 8.5 16.7084C4.70895 16.7084 1.625 13.6024 1.625 9.75763C1.625 5.91288 4.70895 2.80686 8.5 2.80686H8.60717L8.10717 3.21089C7.83867 3.42784 7.79692 3.82136 8.01392 4.08984C8.23083 4.35831 8.62433 4.40008 8.89283 4.18313L10.7678 2.66798C10.9147 2.54932 11 2.37065 11 2.18186C11 1.99307 10.9147 1.8144 10.7678 1.69574L8.89283 0.180588Z" fill="white"/>
<path d="M6.56282 5.93666C6.77936 5.83259 7.03639 5.86185 7.22397 6.01193L11.3906 9.34523C11.5389 9.4639 11.6252 9.64348 11.6252 9.83331C11.6252 10.0231 11.5389 10.2027 11.3906 10.3213L7.22397 13.6546C7.03639 13.8047 6.77936 13.8341 6.56282 13.73C6.34627 13.6259 6.20856 13.4069 6.20856 13.1666V6.49997C6.20856 6.25972 6.34627 6.04074 6.56282 5.93666Z" fill="white"/>
</svg>
