<svg aria-hidden="true" style="position: absolute; width: 0; height: 0; overflow: hidden;" version="1.1" xmlns="http://www.w3.org/2000/svg" xmlns:xlink="http://www.w3.org/1999/xlink">
<defs>
<symbol id="icon-calendar" viewBox="0 0 32 32">
<path fill="#5a575a" style="fill: var(--color1, #5a575a)" d="M28.25 2.5h-1.5v-2.5h-2.5v2.5h-16.5v-2.5h-2.5v2.5h-1.5c-2.068 0-3.75 1.682-3.75 3.75v22c0 2.068 1.682 3.75 3.75 3.75h24.5c2.068 0 3.75-1.682 3.75-3.75v-22c0-2.068-1.682-3.75-3.75-3.75zM29.5 28.25c0 0.689-0.561 1.25-1.25 1.25h-24.5c-0.689 0-1.25-0.561-1.25-1.25v-16.5h27v16.5zM29.5 9.25h-27v-3c0-0.689 0.561-1.25 1.25-1.25h1.5v2.5h2.5v-2.5h16.5v2.5h2.5v-2.5h1.5c0.689 0 1.25 0.561 1.25 1.25v3z"></path>
<path fill="#5a575a" style="fill: var(--color1, #5a575a)" d="M7.25 14.375h-2.5v2.5h2.5v-2.5z"></path>
<path fill="#5a575a" style="fill: var(--color1, #5a575a)" d="M12.25 14.375h-2.5v2.5h2.5v-2.5z"></path>
<path fill="#5a575a" style="fill: var(--color1, #5a575a)" d="M17.25 14.375h-2.5v2.5h2.5v-2.5z"></path>
<path fill="#5a575a" style="fill: var(--color1, #5a575a)" d="M22.25 14.375h-2.5v2.5h2.5v-2.5z"></path>
<path fill="#5a575a" style="fill: var(--color1, #5a575a)" d="M27.25 14.375h-2.5v2.5h2.5v-2.5z"></path>
<path fill="#5a575a" style="fill: var(--color1, #5a575a)" d="M7.25 19.375h-2.5v2.5h2.5v-2.5z"></path>
<path fill="#5a575a" style="fill: var(--color1, #5a575a)" d="M12.25 19.375h-2.5v2.5h2.5v-2.5z"></path>
<path fill="#5a575a" style="fill: var(--color1, #5a575a)" d="M17.25 19.375h-2.5v2.5h2.5v-2.5z"></path>
<path fill="#5a575a" style="fill: var(--color1, #5a575a)" d="M22.25 19.375h-2.5v2.5h2.5v-2.5z"></path>
<path fill="#5a575a" style="fill: var(--color1, #5a575a)" d="M7.25 24.375h-2.5v2.5h2.5v-2.5z"></path>
<path fill="#5a575a" style="fill: var(--color1, #5a575a)" d="M12.25 24.375h-2.5v2.5h2.5v-2.5z"></path>
<path fill="#5a575a" style="fill: var(--color1, #5a575a)" d="M17.25 24.375h-2.5v2.5h2.5v-2.5z"></path>
<path fill="#5a575a" style="fill: var(--color1, #5a575a)" d="M22.25 24.375h-2.5v2.5h2.5v-2.5z"></path>
<path fill="#5a575a" style="fill: var(--color1, #5a575a)" d="M27.25 19.375h-2.5v2.5h2.5v-2.5z"></path>
</symbol>
<symbol id="icon-circle" viewBox="0 0 32 32">
<path fill="#5a575a" style="fill: var(--color1, #5a575a)" d="M15.893 26.56c-1.408 0-2.752-0.256-4.032-0.768l0.704-1.792c1.024 0.448 2.176 0.64 3.328 0.64v1.92zM17.301 26.496l-0.256-1.92c1.152-0.128 2.176-0.512 3.2-1.088l0.96 1.664c-1.216 0.704-2.56 1.152-3.904 1.344zM10.645 25.152c-1.216-0.704-2.24-1.6-3.072-2.688l1.536-1.152c0.704 0.896 1.536 1.664 2.56 2.24l-1.024 1.6zM22.357 24.384l-1.152-1.536c0.896-0.704 1.664-1.536 2.24-2.56l1.664 0.96c-0.768 1.216-1.664 2.304-2.752 3.136zM6.741 21.312c-0.704-1.216-1.152-2.496-1.344-3.904l1.92-0.256c0.128 1.152 0.512 2.176 1.088 3.2l-1.664 0.96zM25.621 20.032l-1.792-0.704c0.448-1.024 0.64-2.176 0.64-3.328l1.6-0.064h0.32c0.064 1.472-0.192 2.816-0.768 4.096zM5.333 16c0-1.408 0.256-2.752 0.768-4.032l1.792 0.704c-0.448 1.024-0.64 2.176-0.64 3.264l-1.92 0.064zM24.469 14.848c-0.128-1.152-0.512-2.176-1.088-3.2l1.664-0.96c0.704 1.216 1.152 2.496 1.344 3.904l-1.92 0.256zM8.405 11.712l-1.664-0.96c0.704-1.216 1.6-2.24 2.688-3.072l1.152 1.536c-0.896 0.64-1.6 1.472-2.176 2.496zM22.741 10.688c-0.704-0.896-1.536-1.664-2.56-2.24l0.96-1.664c1.216 0.704 2.24 1.6 3.136 2.688l-1.536 1.216zM11.541 8.512l-0.96-1.664c1.216-0.704 2.496-1.152 3.904-1.344l0.256 1.92c-1.152 0.192-2.176 0.512-3.2 1.088zM19.157 8c-1.024-0.448-2.176-0.64-3.264-0.64v-1.92h0.064c1.344 0 2.688 0.256 3.968 0.768l-0.768 1.792z"></path>
<path fill="#5a575a" style="fill: var(--color1, #5a575a)" d="M16 22.528c-3.584 0-6.528-2.944-6.528-6.528s2.944-6.528 6.528-6.528c3.584 0 6.528 2.944 6.528 6.528s-2.944 6.528-6.528 6.528zM16 11.392c-2.56 0-4.608 2.048-4.608 4.608s2.048 4.608 4.608 4.608c2.56 0 4.608-2.048 4.608-4.608s-2.048-4.608-4.608-4.608z"></path>
</symbol>
<symbol id="icon-close" viewBox="0 0 32 32">
<path fill="#757575" style="fill: var(--color2, #757575)" d="M27.319 4.681c-6.243-6.242-16.396-6.242-22.639 0-6.24 6.242-6.24 16.397 0 22.639 3.121 3.12 7.221 4.68 11.32 4.68s8.197-1.56 11.319-4.68c6.242-6.242 6.242-16.397 0-22.639zM22.602 20.717c0.522 0.521 0.522 1.365 0 1.886-0.26 0.26-0.602 0.391-0.943 0.391s-0.683-0.131-0.943-0.391l-4.716-4.717-4.714 4.716c-0.261 0.26-0.603 0.391-0.943 0.391-0.341 0-0.683-0.131-0.943-0.391-0.522-0.522-0.522-1.366 0-1.886l4.714-4.716-4.716-4.716c-0.522-0.522-0.522-1.366 0-1.886 0.52-0.522 1.365-0.522 1.886 0l4.715 4.716 4.716-4.716c0.522-0.522 1.365-0.522 1.886 0 0.522 0.52 0.522 1.365 0 1.886l-4.716 4.716 4.716 4.717z"></path>
</symbol>
<symbol id="icon-gap" viewBox="0 0 32 32">
<path fill="#5a575a" style="fill: var(--color1, #5a575a)" d="M2.304 1.216c0.512 0.256 0.64 0.64 0.64 1.152 0 9.088 0 18.176 0 27.328 0 0.512-0.192 0.896-0.64 1.152-0.128 0-0.32 0-0.448 0-0.256-0.128-0.512-0.32-0.64-0.64 0-9.472 0-18.88 0-28.352 0.128-0.256 0.32-0.512 0.64-0.64 0.128 0 0.32 0 0.448 0z"></path>
<path fill="#5a575a" style="fill: var(--color1, #5a575a)" d="M29.696 30.784c-0.512-0.256-0.64-0.576-0.64-1.152 0-9.152 0-18.304 0-27.456 0-0.512 0.192-0.832 0.64-1.024 0.128 0 0.32 0 0.448 0 0.256 0.128 0.512 0.32 0.64 0.64 0 9.472 0 18.88 0 28.352-0.128 0.256-0.32 0.512-0.64 0.64-0.128 0-0.32 0-0.448 0z"></path>
<path fill="#5a575a" style="fill: var(--color1, #5a575a)" d="M20.48 16.896c-3.008 0-5.952 0-8.96 0 0 0.128 0 0.256 0 0.384 0 0.832 0 1.728 0 2.56 0 0.448-0.128 0.768-0.576 0.96-0.384 0.128-0.704 0-1.024-0.32-1.216-1.28-2.496-2.496-3.712-3.712-0.448-0.448-0.448-0.96 0-1.408 1.28-1.28 2.496-2.496 3.776-3.776 0.448-0.448 1.024-0.448 1.344 0 0.128 0.192 0.192 0.448 0.192 0.704 0 0.832 0 1.664 0 2.56 0 0.128 0 0.192 0 0.32 3.008 0 5.952 0 8.96 0 0-0.512 0-0.96 0-1.472 0-0.448 0-0.96 0-1.408s0.128-0.768 0.576-0.96c0.384-0.192 0.768 0 1.024 0.32 1.28 1.28 2.496 2.496 3.776 3.776 0.448 0.448 0.448 0.96 0 1.408-1.28 1.28-2.496 2.496-3.776 3.776-0.256 0.256-0.576 0.384-1.024 0.256-0.384-0.256-0.576-0.576-0.576-1.024 0-0.896 0-1.728 0-2.624 0-0.064 0-0.192 0-0.32z"></path>
</symbol>
<symbol id="icon-hand" viewBox="0 0 32 32">
<path fill="#757575" style="fill: var(--color2, #757575)" d="M0.941 10.416h6.183l6.687 6.016c0.524 0.49 1.208 0.76 1.927 0.76h6.286c0.788 0 1.529-0.307 2.085-0.864s0.864-1.297 0.864-2.085c0-0.041 0-0.209 0-0.251 0-1.764-1.435-3.2-3.2-3.2h-1.216c0.527-1.177 0.309-2.609-0.656-3.574l-2.295-2.295c-0-0-0.001-0-0.001-0.001s-0.001-0.001-0.001-0.001l-3.851-3.828c-0.195-0.194-0.411-0.366-0.641-0.511-0.603-0.381-1.299-0.582-2.012-0.582h-10.158c-0.52 0-0.941 0.421-0.941 0.941v8.533c0 0.52 0.421 0.941 0.941 0.941zM7.467 8.533h-0.565v-6.651h4.198c0.357 0 0.705 0.101 1.006 0.291 0.115 0.073 0.223 0.159 0.321 0.256l3.85 3.827 2.293 2.293c0.514 0.514 0.514 1.35 0 1.863-0.274 0.274-0.583 0.358-0.803 0.379h-0.25c-0.305-0.028-0.592-0.162-0.81-0.379l-3.035-3.035c-0.367-0.368-0.963-0.368-1.331 0s-0.368 0.963 0 1.331l3.035 3.035c0.534 0.534 1.24 0.861 1.991 0.925 0.050 0.006 0.441 0.006 0.442 0.006h3.965c0.727 0 1.318 0.591 1.318 1.318v0.251c0 0.285-0.111 0.553-0.312 0.754s-0.469 0.312-0.754 0.312h-6.286c-0.239 0-0.467-0.090-0.642-0.253l-7.024-6.303c-0.063-0.045-0.149-0.097-0.258-0.14-0.136-0.054-0.259-0.073-0.348-0.080zM1.882 1.882h3.137v6.651h-3.137v-6.651z"></path>
<path fill="#757575" style="fill: var(--color2, #757575)" d="M31.059 30.118h-1.067v-8.845c1.178-0.483 2.008-1.855 2.008-3.515 0-1.993-2.204-3.408-2.456-3.562-0.302-0.186-0.684-0.186-0.987 0-0.251 0.155-2.456 1.569-2.456 3.562 0 1.661 0.829 3.033 2.008 3.515v8.845l-6.149-0v-3.324c1.178-0.483 2.008-1.855 2.008-3.515 0-1.993-2.204-3.408-2.456-3.562-0.302-0.186-0.684-0.186-0.987 0-0.251 0.155-2.456 1.569-2.456 3.562 0 1.661 0.83 3.033 2.008 3.515v3.323l-8.157-0v-3.323c1.178-0.483 2.008-1.855 2.008-3.515 0-1.993-2.204-3.408-2.456-3.562-0.303-0.186-0.684-0.186-0.987 0-0.251 0.155-2.456 1.569-2.456 3.562 0 1.661 0.829 3.033 2.008 3.515v3.323l-6.149-0v-8.844c1.178-0.483 2.008-1.855 2.008-3.515 0-1.993-2.204-3.408-2.456-3.562-0.303-0.186-0.684-0.186-0.987 0-0.251 0.155-2.456 1.569-2.456 3.562 0 1.661 0.83 3.033 2.008 3.515v8.844h-1.067c-0.52 0-0.941 0.421-0.941 0.941s0.421 0.941 0.941 0.941h1.986c0.007 0 0.015 0.001 0.022 0.001s0.015-0.001 0.022-0.001l28.088 0.001c0.52 0 0.941-0.421 0.941-0.941s-0.421-0.941-0.941-0.941zM29.051 16.162c0.502 0.421 1.067 1.049 1.067 1.595 0 1.042-0.563 1.82-1.067 1.82s-1.067-0.778-1.067-1.82c0-0.546 0.565-1.174 1.067-1.595zM21.019 21.683c0.502 0.421 1.067 1.049 1.067 1.595 0 1.041-0.563 1.82-1.067 1.82s-1.067-0.778-1.067-1.82c0-0.546 0.565-1.174 1.067-1.595zM10.98 21.683c0.502 0.421 1.067 1.049 1.067 1.595 0 1.041-0.563 1.82-1.067 1.82s-1.067-0.778-1.067-1.82c0-0.546 0.565-1.174 1.067-1.595zM2.949 16.162c0.502 0.421 1.067 1.049 1.067 1.595 0 1.042-0.563 1.82-1.067 1.82s-1.067-0.778-1.067-1.82c0-0.546 0.565-1.174 1.067-1.595z"></path>
<path fill="#757575" style="fill: var(--color2, #757575)" d="M23.527 8.408c0.52 0 0.942-0.422 0.942-0.941s-0.422-0.941-0.942-0.941c-0.52 0-0.942 0.422-0.942 0.941s0.422 0.941 0.942 0.941z"></path>
<path fill="#757575" style="fill: var(--color2, #757575)" d="M27.043 11.922c0.52 0 0.942-0.422 0.942-0.941s-0.422-0.941-0.942-0.941c-0.52 0-0.941 0.422-0.941 0.941s0.421 0.941 0.941 0.941z"></path>
<path fill="#757575" style="fill: var(--color2, #757575)" d="M28.55 7.404c0.52 0 0.942-0.422 0.942-0.942s-0.422-0.941-0.942-0.941c-0.52 0-0.942 0.422-0.942 0.941s0.422 0.941 0.942 0.941z"></path>
</symbol>
<symbol id="icon-millet" viewBox="0 0 26 32">
<path fill="#757575" style="fill: var(--color2, #757575)" d="M14.472 21.984c-0.352 0.378-0.672 0.742-1.011 1.094-0.55 0.57-0.659 1.21-0.57 1.997 0.224 1.933 0.262 3.872-0.205 5.779-0.051 0.205-0.122 0.41-0.186 0.614-0.070 0.224-0.218 0.32-0.442 0.243s-0.211-0.256-0.179-0.454c0.090-0.576 0.256-1.165 0.224-1.734-0.083-1.446-0.762-2.605-1.926-3.469-0.192-0.141-0.262-0.294-0.128-0.486 0.134-0.205 0.314-0.173 0.499-0.045 0.698 0.493 1.242 1.114 1.632 1.869 0.045 0.090 0.096 0.179 0.224 0.256-0.032-0.717-0.064-1.44-0.109-2.157-0.019-0.288-0.090-0.576-0.083-0.864 0.006-0.352-0.141-0.602-0.429-0.762-0.429-0.243-0.87-0.454-1.293-0.698-0.518-0.294-1.069-0.557-1.517-0.934-0.819-0.698-1.229-1.606-1.082-2.784-0.538-0.096-1.056-0.211-1.581-0.275-0.698-0.083-1.414-0.077-2.106-0.205-1.286-0.243-2.285-0.941-2.893-2.131-0.064-0.122-0.122-0.25-0.16-0.384-0.064-0.198-0.051-0.403 0.186-0.48 0.224-0.077 0.365 0.045 0.435 0.262 0.282 0.845 0.845 1.453 1.651 1.779 0.525 0.218 1.101 0.339 1.67 0.416 0.928 0.128 1.869 0.186 2.79 0.269-0.013-0.019-0.051-0.096-0.096-0.166-0.493-0.749-0.851-1.555-0.998-2.451-0.032-0.192-0.115-0.282-0.307-0.346-0.87-0.282-1.722-0.614-2.445-1.178-0.397-0.307-0.73-0.71-1.069-1.094-0.147-0.166-0.173-0.384 0.058-0.525 0.23-0.147 0.371-0.013 0.493 0.186 0.602 0.941 1.562 1.35 2.573 1.798-0.102-0.422-0.205-0.787-0.275-1.152-0.038-0.179-0.064-0.365-0.038-0.544 0.045-0.32-0.064-0.512-0.326-0.71-0.928-0.698-1.376-1.645-1.35-2.81 0.006-0.192-0.045-0.307-0.198-0.429-0.826-0.634-1.248-1.504-1.395-2.515-0.045-0.198-0.115-0.307-0.301-0.403-0.685-0.339-1.242-0.832-1.677-1.459-0.128-0.192-0.23-0.39 0-0.563s0.384-0.019 0.525 0.173c0.461 0.634 1.024 1.133 1.766 1.414-0.109-0.499-0.269-0.966-0.301-1.446-0.026-0.563 0.038-1.133 0.102-1.69 0.032-0.269 0.218-0.358 0.499-0.282 1.133 0.314 2.074 0.902 2.714 1.914 0.614-0.582 0.666-0.403 1.158 0.058 0.653 0.608 1.011 1.395 1.254 2.24 0.032 0.122 0.070 0.243 0.122 0.435 0.314-0.48 0.429-0.96 0.467-1.453 0.090-1.107-0.179-2.144-0.614-3.155-0.058-0.128-0.070-0.326-0.013-0.442 0.141-0.237 0.429-0.173 0.57 0.122 0.358 0.723 0.576 1.498 0.685 2.298 0.109 0.787 0.051 1.562-0.205 2.317-0.026 0.070-0.026 0.179 0.019 0.23 0.774 1.005 1.133 2.17 1.299 3.411 0.563-0.128 0.576-0.122 0.858 0.422 0.499 0.96 0.704 1.99 0.787 3.091 0.070-0.122 0.141-0.237 0.198-0.358 0.442-0.96 0.57-1.978 0.474-3.014-0.077-0.826-0.237-1.651-0.378-2.47-0.038-0.23 0-0.39 0.224-0.454 0.218-0.064 0.346 0.058 0.403 0.262 0.467 1.766 0.653 3.533 0.122 5.318-0.045 0.141-0.070 0.301-0.154 0.422-0.32 0.461-0.269 0.89-0.058 1.395 0.384 0.896 0.486 1.856 0.416 2.835-0.006 0.064 0 0.128 0 0.198 0.269-0.026 0.442-0.134 0.544-0.384 0.109-0.275 0.282-0.506 0.659-0.32 0.019-0.403 0.032-0.787 0.064-1.165 0.064-0.806 0.282-1.574 0.627-2.31 0.051-0.115 0.051-0.294 0.006-0.41-0.768-1.818-0.685-3.674-0.275-5.549 0.045-0.211 0.179-0.358 0.416-0.288 0.224 0.064 0.262 0.237 0.218 0.461-0.256 1.126-0.378 2.266-0.205 3.411 0.083 0.563 0.25 1.107 0.378 1.664 0.032-0.006 0.064-0.013 0.096-0.019 0.102-0.518 0.173-1.043 0.314-1.549 0.166-0.595 0.339-1.197 0.838-1.626 0.051-0.045 0.058-0.173 0.032-0.256-0.582-2.362-0.275-4.653 0.544-6.906 0.026-0.070 0.038-0.166 0.096-0.198 0.122-0.077 0.269-0.192 0.39-0.173 0.198 0.026 0.243 0.218 0.198 0.403-0.026 0.096-0.064 0.179-0.096 0.269-0.646 1.779-0.909 3.61-0.678 5.491 0.019 0.16 0.051 0.314 0.128 0.474 0.032-0.096 0.058-0.198 0.102-0.288 0.294-0.602 0.563-1.222 0.896-1.805 0.262-0.448 0.41-0.442 0.819-0.128 0.038 0.032 0.083 0.064 0.16 0.122 0.058-0.205 0.109-0.378 0.166-0.557 0.282-0.896 0.717-1.696 1.459-2.298 0.186-0.154 0.384-0.294 0.621-0.090 0.141-0.48 0.224-0.966 0.429-1.395 0.307-0.653 0.704-1.267 1.062-1.894 0.051-0.090 0.134-0.166 0.211-0.237 0.147-0.147 0.32-0.198 0.486-0.045 0.179 0.16 0.141 0.339-0.013 0.506-0.608 0.646-0.998 1.408-1.267 2.246-0.032 0.096-0.058 0.198-0.064 0.243 0.55-0.275 1.114-0.602 1.702-0.845 0.685-0.275 0.787-0.173 0.896 0.563 0.128 0.89 0.013 1.747-0.346 2.598 0.39 0.058 0.422 0.314 0.384 0.621-0.134 1.088-0.576 2.010-1.478 2.675-0.070 0.051-0.154 0.147-0.16 0.224-0.045 0.896-0.378 1.683-0.909 2.432 0.198-0.058 0.397-0.109 0.589-0.179 0.883-0.326 1.619-0.87 2.234-1.574 0.090-0.102 0.23-0.192 0.365-0.218 0.077-0.013 0.243 0.109 0.256 0.186 0.019 0.128-0.013 0.307-0.096 0.403-0.64 0.787-1.421 1.402-2.381 1.747-0.525 0.192-1.088 0.301-1.638 0.454-0.051 0.346-0.070 0.755-0.179 1.146-0.096 0.346-0.243 0.698-0.448 0.986-0.25 0.346-0.403 0.71-0.499 1.12-0.211 0.96-0.659 1.805-1.293 2.554-0.032 0.038-0.064 0.083-0.090 0.128-0.006 0.006 0 0.019 0.006 0.051 0.57-0.179 1.075-0.467 1.542-0.826 0.762-0.582 1.357-1.306 1.696-2.214 0.083-0.218 0.198-0.378 0.448-0.288 0.275 0.096 0.243 0.32 0.16 0.538-0.429 1.126-1.171 2.010-2.17 2.675-0.346 0.23-0.73 0.403-1.088 0.614-0.090 0.051-0.192 0.154-0.205 0.243-0.224 1.594-1.235 2.47-2.656 3.002-0.429 0.16-0.851 0.346-1.261 0.544-0.115 0.058-0.237 0.205-0.262 0.326-0.173 0.87-0.326 1.741-0.416 2.643 0.064-0.090 0.128-0.179 0.192-0.269 1.203-1.613 2.771-2.752 4.614-3.526 0.128-0.051 0.333-0.064 0.448 0 0.243 0.141 0.147 0.442-0.166 0.576-0.934 0.397-1.792 0.909-2.586 1.536-1.216 0.96-2.182 2.112-2.733 3.578-0.058 0.154-0.090 0.32-0.070 0.512 0.141-0.186 0.269-0.371 0.416-0.55 0.787-0.986 1.747-1.76 2.835-2.387 0.198-0.115 0.41-0.205 0.557 0.051 0.154 0.262-0.032 0.403-0.243 0.531-1.069 0.614-2.010 1.389-2.752 2.381-0.646 0.858-1.082 1.798-1.075 2.899 0 0.218-0.070 0.39-0.326 0.384-0.262-0.006-0.333-0.186-0.326-0.422 0-0.019 0-0.045 0-0.064 0.090-1.178 0.141-2.355 0.288-3.52 0.173-1.414 0.435-2.81 0.653-4.218 0.013-0.070 0.026-0.16 0-0.218-0.198-0.454-0.454-0.851-0.794-1.152zM11.259 20.166c-0.198-0.768-0.429-1.555-0.864-2.266-0.314-0.506-0.73-0.909-1.293-1.107-0.506-0.186-1.030-0.326-1.606-0.506 0.563 2.010 1.683 3.405 3.763 3.878zM8.936 7.776c-0.928 0.71-1.254 1.76-1.005 2.515 0.256 0.787 0.73 1.51 1.107 2.259 0.224-0.416 0.403-0.832 0.666-1.184 0.192-0.262 0.237-0.512 0.198-0.806-0.013-0.115-0.038-0.23-0.051-0.352-0.128-0.87-0.454-1.664-0.915-2.432zM9.979 16.403c-0.326-0.755-0.653-1.504-0.979-2.253-0.019-0.045-0.070-0.083-0.109-0.115-0.698-0.595-1.562-0.736-2.413-0.922-0.16 0.998 0.403 2.118 1.286 2.49 0.71 0.301 1.453 0.531 2.214 0.8zM19.118 12.218c0.25-0.454 0.486-0.96 0.787-1.421 0.32-0.493 0.371-1.018 0.301-1.568-0.090-0.678-0.416-1.235-0.947-1.683-0.557 0.749-1.011 2.074-1.024 2.97 0 0.083 0.013 0.173 0.051 0.243 0.269 0.486 0.55 0.966 0.832 1.459zM10.606 16.090c0.262-0.384 0.506-0.73 0.73-1.094 0.064-0.102 0.109-0.243 0.109-0.358-0.006-0.557 0-1.114-0.070-1.664-0.077-0.589-0.237-1.165-0.538-1.696-0.966 0.589-1.312 1.882-1.030 2.867 0.192 0.672 0.525 1.293 0.8 1.946zM17.544 15.597c0.205-0.461 0.448-0.909 0.595-1.382 0.141-0.454 0.256-0.934 0.25-1.402-0.006-0.794-0.378-1.446-1.043-1.978-0.544 1.133-0.755 2.278-0.602 3.488 0.006 0.051 0.038 0.096 0.064 0.141 0.243 0.365 0.48 0.73 0.736 1.133zM8.437 12.909c-0.403-0.774-0.774-1.491-1.158-2.202-0.045-0.083-0.16-0.147-0.256-0.179-0.73-0.218-1.472-0.429-2.221-0.64-0.013 0.083-0.026 0.128-0.026 0.166 0 0.083 0.006 0.173 0.019 0.256 0.192 0.979 0.742 1.683 1.67 2.035 0.608 0.23 1.254 0.358 1.971 0.563zM16.974 19.328c1.747-0.422 3.334-2.067 3.411-3.507-2.163 0.57-2.989 1.414-3.411 3.507zM11.777 19.386c0.288-0.262 0.582-0.512 0.858-0.774 0.058-0.058 0.102-0.166 0.102-0.25 0.006-0.608 0.038-1.222-0.026-1.824-0.051-0.486-0.218-0.966-0.339-1.472-0.947 0.614-1.408 1.92-1.082 2.867 0.096 0.275 0.179 0.55 0.269 0.826 0.083 0.224 0.16 0.448 0.218 0.627zM16.321 18.899c0.243-0.678 0.48-1.331 0.71-1.984 0.032-0.083 0.038-0.198 0.013-0.282-0.134-0.422-0.243-0.864-0.442-1.261-0.166-0.326-0.442-0.595-0.704-0.934-0.48 1.171-0.608 2.278-0.435 3.424 0.013 0.077 0.045 0.166 0.096 0.224 0.237 0.269 0.486 0.525 0.762 0.813zM11.944 23.066c-0.058-0.314-0.128-0.608-0.166-0.909-0.102-0.794-0.621-1.267-1.306-1.523-0.608-0.23-1.267-0.326-1.952-0.493 0.224 1.094 0.877 1.779 1.792 2.234 0.512 0.25 1.056 0.448 1.632 0.691zM3.201 6.675c0.115 1.715 1.613 2.842 3.482 2.906-0.333-0.557-0.627-1.114-0.986-1.632-0.595-0.864-1.53-1.088-2.496-1.274zM21.454 12.915c-0.41 0.064-0.813 0.083-1.184 0.198-0.365 0.115-0.845 0.237-1.024 0.518-0.41 0.646-0.672 1.389-0.992 2.086 0.48-0.154 0.928-0.288 1.37-0.442 0.314-0.109 0.621-0.23 0.909-0.39 0.576-0.32 1.037-1.325 0.922-1.971zM5.147 6.509c0.083-0.442 0.166-0.864 0.243-1.293 0.013-0.077-0.013-0.173-0.051-0.243-0.41-0.787-1.050-1.306-1.875-1.613-0.173-0.064-0.25 0-0.262 0.16-0.058 0.8 0.006 1.581 0.416 2.298 0.058 0.096 0.141 0.205 0.237 0.243 0.435 0.16 0.87 0.301 1.293 0.448zM21.646 4.858c-0.032 0.026-0.070 0.045-0.102 0.077-0.717 0.736-1.050 1.645-1.197 2.637-0.013 0.070 0.006 0.154 0.032 0.218 0.186 0.403 0.378 0.794 0.563 1.197 0.275-0.416 0.518-0.883 0.851-1.274 0.71-0.819 0.422-2.138-0.147-2.854zM7.163 9.069c0.211-0.41 0.384-0.73 0.544-1.050 0.038-0.070 0.077-0.166 0.058-0.237-0.186-0.64-0.346-1.299-0.602-1.914-0.154-0.365-0.461-0.666-0.73-1.043-0.474 0.723-0.64 1.44-0.358 2.15 0.288 0.717 0.71 1.376 1.088 2.093zM19.797 12.429c0.813-0.090 1.555-0.179 2.157-0.73 0.582-0.531 0.979-1.146 1.133-1.946-0.48 0.090-0.915 0.147-1.331 0.256-0.262 0.064-0.614 0.134-0.742 0.32-0.448 0.666-0.806 1.376-1.216 2.099zM14.587 18.195c-0.653 1.338-0.422 2.88 0.89 3.821 0.173-0.659 0.352-1.318 0.518-1.984 0.019-0.077 0.019-0.173-0.013-0.243-0.301-0.672-0.8-1.165-1.395-1.594zM12.686 22.938c0.384-0.461 0.736-0.877 1.082-1.299 0.128-0.16 0.122-0.333 0.045-0.538-0.115-0.307-0.198-0.634-0.23-0.96-0.038-0.397-0.006-0.8-0.006-1.254-0.717 0.41-1.229 0.909-1.408 1.683-0.013 0.051-0.019 0.109-0.006 0.154 0.16 0.717 0.333 1.427 0.525 2.214zM16.264 22.016c1.869-0.493 3.104-1.517 3.091-2.586-0.512 0.128-1.024 0.23-1.517 0.39-1.242 0.403-1.414 0.998-1.574 2.195zM24.744 3.354c-0.947 0.301-1.638 0.819-2.061 1.67-0.019 0.045-0.032 0.109-0.019 0.154 0.096 0.358 0.198 0.71 0.301 1.062 0.371-0.109 0.723-0.192 1.062-0.314 0.134-0.045 0.282-0.154 0.352-0.275 0.384-0.698 0.435-1.459 0.365-2.298zM21.646 9.229c1.805 0.006 3.085-1.498 3.034-2.669-0.41 0.102-0.813 0.186-1.21 0.307-0.358 0.109-0.646 0.301-0.768 0.698-0.058 0.186-0.205 0.352-0.314 0.518-0.237 0.378-0.48 0.749-0.742 1.146z"></path>
</symbol>
<symbol id="icon-night" viewBox="0 0 32 32">
<path fill="#757575" style="fill: var(--color2, #757575)" d="M20.925 30.144h-11.887v-0.1c-1.15-0.219-2.206-0.787-3.044-1.644-1.056-1.088-1.631-2.513-1.631-4.019 0-3.063 2.4-5.575 5.425-5.756 0.963-1.938 2.963-3.194 5.163-3.194s4.194 1.256 5.162 3.194c3.019 0.175 5.425 2.694 5.425 5.756 0 1.494-0.569 2.913-1.606 3.994-0.819 0.856-1.862 1.425-3 1.656v0.113h-0.006zM10.075 28.25l9.862-0.006c2.075-0.094 3.7-1.788 3.7-3.869 0-2.137-1.737-3.875-3.875-3.875-0.075 0-0.15 0-0.225 0.006l-0.706 0.044-0.238-0.669c-0.55-1.531-2.013-2.563-3.644-2.563s-3.094 1.031-3.644 2.563l-0.238 0.669-0.706-0.044c-0.081-0.006-0.156-0.006-0.225-0.006-2.138 0-3.875 1.738-3.875 3.875 0 2.106 1.65 3.806 3.756 3.869l0.056 0.006z"></path>
<path fill="#757575" style="fill: var(--color2, #757575)" d="M23.231 21.837c-0.225 0.038-0.462-0.031-0.625-0.194l-0.087-0.087c-0.731-0.725-1.7-1.125-2.731-1.125-0.075 0-0.15 0-0.225 0.006l-0.175 0.013c-0.313 0.019-0.606-0.175-0.712-0.469l-0.062-0.169c-0.55-1.531-2.013-2.563-3.644-2.563-0.337 0-0.681 0.044-1.006 0.131l-0.175 0.050c-0.313 0.081-0.637-0.050-0.8-0.331l-0.088-0.156c-0.95-1.644-1.419-3.513-1.344-5.413 0.094-2.438 1.075-4.75 2.75-6.519 1.675-1.763 3.925-2.856 6.331-3.087l0.162-0.019c0.294-0.031 0.575 0.125 0.706 0.394l0.144 0.294c0.131 0.269 0.081 0.587-0.119 0.8l-0.106 0.112c-1.375 1.506-2.131 3.456-2.131 5.494 0 4.494 3.656 8.156 8.156 8.156 0.25 0 0.513-0.013 0.769-0.038h0.013l0.156-0.013c0.287-0.025 0.563 0.131 0.694 0.394l0.144 0.287c0.131 0.263 0.087 0.575-0.106 0.787l-0.112 0.125c-1.488 1.625-3.494 2.731-5.65 3.113l-0.125 0.025zM20.488 18.575c0.988 0.119 1.925 0.488 2.725 1.081 0.175 0.131 0.406 0.169 0.619 0.106 0.006 0 0.019-0.006 0.025-0.006 0.65-0.187 0.688-1.106 0.056-1.344-1.325-0.5-2.538-1.275-3.563-2.306-1.9-1.9-2.944-4.419-2.944-7.106 0-0.969 0.137-1.919 0.406-2.825 0.194-0.656-0.556-1.188-1.106-0.775-1.906 1.431-3.156 3.681-3.256 6.2-0.044 1.137 0.15 2.263 0.569 3.313 0.113 0.281 0.387 0.456 0.688 0.444 0.088-0.006 0.181-0.006 0.269-0.006 2.075 0 3.975 1.125 4.994 2.881 0.1 0.194 0.3 0.319 0.519 0.344z"></path>
</symbol>
<symbol id="icon-pancel" viewBox="0 0 34 32">
<path fill="#757575" style="fill: var(--color2, #757575)" d="M19.996 5.34l6.541 6.541-16.558 16.558-6.538-6.541 16.554-16.558zM31.501 3.763l-2.917-2.917c-1.127-1.127-2.958-1.127-4.089 0l-2.794 2.794 6.541 6.541 3.26-3.26c0.874-0.874 0.874-2.285 0-3.159zM0.018 31.093c-0.119 0.536 0.365 1.016 0.9 0.886l7.289-1.767-6.538-6.541-1.652 7.423z"></path>
</symbol>
<symbol id="icon-pi" viewBox="0 0 32 32">
<path fill="#5a575a" style="fill: var(--color1, #5a575a)" d="M30.279-0h-28.53c-0.503-0.001-0.965 0.28-1.195 0.728-0.233 0.454-0.192 1 0.106 1.414l10.452 14.724c0.004 0.005 0.007 0.010 0.011 0.015 0.38 0.513 0.585 1.133 0.586 1.772v12.004c-0.002 0.356 0.137 0.697 0.388 0.949s0.591 0.394 0.947 0.394c0.181 0 0.359-0.036 0.526-0.105l5.873-2.239c0.526-0.16 0.876-0.657 0.876-1.255v-9.747c0.001-0.638 0.206-1.259 0.586-1.772 0.004-0.005 0.007-0.010 0.011-0.015l10.452-14.724c0.298-0.414 0.339-0.96 0.106-1.414-0.23-0.448-0.691-0.729-1.195-0.728zM19.596 15.918c-0.584 0.792-0.9 1.75-0.901 2.734v9.55l-5.361 2.044v-11.594c-0.002-0.984-0.318-1.942-0.902-2.734l-10.147-14.294h27.458l-10.147 14.294z"></path>
</symbol>
<symbol id="icon-settings" viewBox="0 0 30 32">
<path fill="#5a575a" style="fill: var(--color1, #5a575a)" d="M15.87 30.844h-1.874c-1.516 0-2.749-1.233-2.749-2.749v-0.634c-0.645-0.206-1.271-0.466-1.872-0.777l-0.449 0.449c-1.088 1.090-2.832 1.058-3.889-0l-1.325-1.325c-1.059-1.058-1.089-2.8 0-3.889l0.449-0.449c-0.311-0.602-0.571-1.228-0.777-1.872h-0.634c-1.516 0-2.749-1.233-2.749-2.749v-1.874c0-1.516 1.233-2.749 2.749-2.749h0.634c0.206-0.645 0.466-1.271 0.777-1.872l-0.449-0.449c-1.089-1.088-1.059-2.831 0-3.889l1.325-1.325c1.059-1.061 2.802-1.087 3.889 0l0.449 0.449c0.602-0.311 1.228-0.571 1.872-0.777v-0.634c0-1.516 1.233-2.749 2.749-2.749h1.874c1.516 0 2.749 1.233 2.749 2.749v0.634c0.645 0.206 1.271 0.466 1.872 0.777l0.449-0.449c1.088-1.090 2.832-1.058 3.889 0l1.325 1.325c1.059 1.058 1.089 2.8-0 3.889l-0.449 0.449c0.311 0.602 0.571 1.228 0.777 1.872h0.634c1.516 0 2.749 1.233 2.749 2.749v1.874c0 1.516-1.233 2.749-2.749 2.749h-0.634c-0.206 0.645-0.466 1.271-0.777 1.872l0.449 0.449c1.089 1.088 1.059 2.831-0 3.889l-1.325 1.325c-1.059 1.061-2.802 1.087-3.889-0l-0.449-0.449c-0.602 0.311-1.228 0.571-1.872 0.777v0.634c0 1.516-1.233 2.749-2.749 2.749zM9.667 24.845c0.836 0.494 1.735 0.868 2.674 1.11 0.386 0.1 0.656 0.448 0.656 0.847v1.292c0 0.551 0.448 0.999 0.999 0.999h1.874c0.551 0 1-0.448 1-0.999v-1.292c0-0.399 0.27-0.748 0.656-0.847 0.938-0.242 1.838-0.616 2.673-1.11 0.344-0.204 0.782-0.148 1.064 0.134l0.915 0.915c0.395 0.395 1.028 0.386 1.413 0l1.326-1.326c0.384-0.384 0.397-1.017 0-1.413l-0.916-0.915c-0.282-0.282-0.338-0.72-0.134-1.064 0.494-0.836 0.868-1.735 1.11-2.673 0.1-0.386 0.448-0.656 0.847-0.656h1.292c0.551 0 0.999-0.448 0.999-0.999v-1.874c0-0.551-0.448-0.999-0.999-0.999h-1.292c-0.399 0-0.748-0.27-0.847-0.656-0.242-0.938-0.615-1.838-1.11-2.673-0.203-0.344-0.148-0.782 0.134-1.064l0.915-0.915c0.396-0.395 0.385-1.029 0-1.413l-1.326-1.326c-0.384-0.385-1.018-0.396-1.413-0l-0.916 0.916c-0.282 0.283-0.72 0.338-1.064 0.134-0.836-0.494-1.735-0.868-2.673-1.11-0.386-0.1-0.656-0.448-0.656-0.847v-1.292c0-0.551-0.448-0.999-0.999-0.999h-1.874c-0.551 0-0.999 0.448-0.999 0.999v1.292c0 0.399-0.27 0.748-0.656 0.847-0.938 0.242-1.838 0.616-2.673 1.11-0.344 0.203-0.782 0.148-1.064-0.134l-0.915-0.915c-0.395-0.395-1.028-0.386-1.413-0l-1.326 1.326c-0.384 0.383-0.397 1.017-0 1.413l0.916 0.916c0.282 0.282 0.338 0.72 0.134 1.064-0.494 0.836-0.868 1.735-1.11 2.673-0.1 0.386-0.448 0.656-0.847 0.656h-1.292c-0.551 0-0.999 0.448-0.999 0.999v1.874c0 0.551 0.448 0.999 0.999 0.999h1.292c0.399 0 0.747 0.27 0.847 0.656 0.242 0.938 0.616 1.838 1.11 2.674 0.203 0.344 0.148 0.782-0.134 1.064l-0.915 0.915c-0.396 0.395-0.385 1.028-0 1.413l1.326 1.325c0.384 0.385 1.018 0.396 1.413 0l0.915-0.916c0.208-0.208 0.641-0.385 1.064-0.134z"></path>
<path fill="#5a575a" style="fill: var(--color1, #5a575a)" d="M14.931 22.409c-3.583 0-6.498-2.915-6.498-6.498s2.915-6.498 6.498-6.498c3.583 0 6.498 2.915 6.498 6.498s-2.915 6.498-6.498 6.498zM14.931 11.162c-2.618 0-4.748 2.13-4.748 4.748s2.13 4.748 4.748 4.748c2.618 0 4.748-2.13 4.748-4.748s-2.13-4.748-4.748-4.748z"></path>
</symbol>
<symbol id="icon-table" viewBox="0 0 32 32">
<path fill="#757575" style="fill: var(--color2, #757575)" d="M30.75 0h-29.5c-0.69 0-1.25 0.56-1.25 1.25v29.5c0 0.69 0.56 1.25 1.25 1.25h29.5c0.69 0 1.25-0.56 1.25-1.25v-29.5c0-0.69-0.56-1.25-1.25-1.25zM29.5 29.5h-27v-27h27v27zM5.116 8.574c-0.488-0.488-0.488-1.28 0-1.768s1.28-0.488 1.768 0l0.809 0.809 2.673-2.673c0.488-0.488 1.28-0.488 1.768 0s0.488 1.28 0 1.768l-3.557 3.557c-0.488 0.488-1.28 0.488-1.768 0l-1.693-1.693zM14.75 7.605c0-0.69 0.56-1.25 1.25-1.25h10c0.69 0 1.25 0.56 1.25 1.25s-0.56 1.25-1.25 1.25h-10c-0.69 0-1.25-0.56-1.25-1.25zM5.116 25.364c-0.488-0.488-0.488-1.28 0-1.768s1.28-0.488 1.768 0l0.809 0.809 2.673-2.673c0.488-0.488 1.28-0.488 1.768 0s0.488 1.28 0 1.768l-3.557 3.557c-0.488 0.488-1.28 0.488-1.768 0l-1.693-1.693zM14.75 24.395c0-0.69 0.56-1.25 1.25-1.25h10c0.69 0 1.25 0.56 1.25 1.25s-0.56 1.25-1.25 1.25h-10c-0.69 0-1.25-0.56-1.25-1.25zM5.116 16.969c-0.488-0.488-0.488-1.28 0-1.768s1.28-0.488 1.768 0l0.809 0.809 2.673-2.673c0.488-0.488 1.28-0.488 1.768 0s0.488 1.28 0 1.768l-3.557 3.557c-0.488 0.488-1.28 0.488-1.768 0l-1.693-1.693zM14.75 16c0-0.69 0.56-1.25 1.25-1.25h10c0.69 0 1.25 0.56 1.25 1.25s-0.56 1.25-1.25 1.25h-10c-0.69 0-1.25-0.56-1.25-1.25z"></path>
</symbol>
<symbol id="icon-twoguys" viewBox="0 0 32 32">
<path fill="#5a575a" style="fill: var(--color1, #5a575a)" d="M10.496 31.68c-2.624-0.064-4.736-0.32-6.72-1.28-0.384-0.192-0.832-0.448-1.152-0.704-1.024-0.768-1.6-1.792-1.536-3.2 0.128-2.304 0.896-4.352 2.432-6.144 0.576-0.64 1.28-0.768 1.792-0.256 0.512 0.448 0.512 1.152 0 1.792-1.152 1.408-1.792 3.008-1.856 4.8 0 0.448 0.128 0.832 0.512 1.024 0.64 0.384 1.344 0.768 2.048 0.96 3.008 0.832 6.080 0.896 8.96-0.384 1.92-0.768 1.728-1.088 1.472-2.752-0.192-1.472-0.832-2.688-1.792-3.84-0.512-0.576-0.512-1.28 0-1.728s1.28-0.384 1.792 0.192c1.664 1.984 2.496 4.224 2.496 6.784 0 1.152-0.64 1.984-1.536 2.624-1.344 1.024-2.88 1.472-4.544 1.728-0.896 0.256-1.856 0.32-2.368 0.384z"></path>
<path fill="#5a575a" style="fill: var(--color1, #5a575a)" d="M10.048 19.712c-3.264 0-5.952-2.688-5.952-5.888 0-3.392 2.624-6.080 6.016-6.080 3.264 0 5.952 2.688 5.952 5.952-0.064 3.392-2.688 6.016-6.016 6.016zM13.632 13.76c0-1.984-1.6-3.584-3.584-3.584s-3.584 1.6-3.584 3.584c0 1.984 1.6 3.584 3.584 3.584s3.584-1.6 3.584-3.584z"></path>
<path fill="#5a575a" style="fill: var(--color1, #5a575a)" d="M21.44 0.64c3.328 0 5.952 2.688 5.952 6.016 0 3.264-2.752 5.952-6.016 5.888-3.264 0-5.888-2.752-5.888-5.952-0.064-3.328 2.624-5.952 5.952-5.952zM24.96 6.592c0-1.984-1.6-3.584-3.584-3.584s-3.584 1.6-3.584 3.584c0 1.984 1.6 3.584 3.584 3.584s3.584-1.6 3.584-3.584z"></path>
<path fill="#5a575a" style="fill: var(--color1, #5a575a)" d="M21.888 24.512c-0.192 0-0.32 0-0.512 0-0.64 0-1.216-0.512-1.216-1.152s0.512-1.216 1.152-1.216c1.216 0 2.496-0.128 3.712-0.448 0.768-0.256 1.536-0.64 2.304-0.96 0.448-0.256 0.64-0.64 0.64-1.216-0.128-1.792-0.768-3.392-1.92-4.8-0.32-0.32-0.448-0.704-0.384-1.152 0.128-0.448 0.384-0.768 0.832-0.896s0.896 0 1.216 0.384c1.088 1.28 1.92 2.688 2.304 4.352 0.128 0.64 0.192 1.216 0.32 1.856 0.192 1.472-0.448 2.56-1.6 3.392-1.088 0.768-2.368 1.28-3.648 1.536-1.088 0.192-2.112 0.32-3.2 0.448 0-0.064 0-0.128 0-0.128z"></path>
</symbol>
<symbol id="icon-Vector" viewBox="0 0 33 32">
<path fill="#646164" style="fill: var(--color3, #646164)" d="M32.128 14.873c0-0.075 0-0.15 0-0.225-0.225-2.93-1.277-5.635-2.855-7.889-0.15-0.225-0.301-0.451-0.451-0.601l-0.075-0.075c-0.15-0.15-0.301-0.376-0.451-0.526-0.075-0.075-0.075-0.075-0.15-0.15-0.15-0.15-0.225-0.301-0.376-0.451-0.075-0.075-0.15-0.15-0.225-0.225-0.15-0.15-0.225-0.225-0.376-0.376-0.075-0.075-0.15-0.15-0.225-0.225s-0.15-0.15-0.225-0.225c-0.225-0.225-0.526-0.451-0.826-0.676 0 0.075-0.075 0.075-0.15 0-0.15-0.075-0.301-0.225-0.376-0.301s-0.15-0.15-0.225-0.15-0.225-0.15-0.376-0.225c-0.075-0.075-0.225-0.15-0.301-0.225-0.075 0-0.075-0.075-0.15-0.075-0.075-0.075-0.15-0.075-0.225-0.15-0.15-0.075-0.225-0.15-0.376-0.225s-0.301-0.075-0.376-0.15c-0.15-0.075-0.225-0.15-0.376-0.15-0.15-0.075-0.301-0.15-0.376-0.15-0.075-0.075-0.225-0.075-0.301-0.15-0.15-0.075-0.301-0.15-0.451-0.15-0.075 0-0.15-0.075-0.225-0.075-0.15-0.075-0.301-0.075-0.451-0.15 0 0 0 0-0.075 0-0.301-0.075-0.676-0.15-0.977-0.301-0.075 0-0.225-0.075-0.301-0.075-0.376-0.15-0.751-0.225-1.127-0.301 0 0 0 0-0.075 0-0.301 0-0.601-0.075-0.977-0.075-0.075 0-0.15 0-0.301 0-0.376 0-0.751-0.075-1.052-0.075-8.79 0-15.928 7.137-15.928 15.928s7.137 15.928 15.928 15.928 15.928-7.137 15.928-15.928c0-0.376 0-0.751-0.075-1.127zM17.402 2.026c0.15 0 0.376 0 0.526 0.075 0.075 0 0.225 0 0.301 0 0.15 0 0.376 0.075 0.526 0.075 0.075 0 0.15 0 0.225 0l-1.803 1.878v-2.029c0.075 0 0.15 0 0.225 0zM21.835 3.078c0.075 0.075 0.225 0.15 0.376 0.225l-5.034 5.259v-1.653l3.832-4.057c0.225 0.075 0.451 0.15 0.676 0.301 0.075-0.075 0.075-0.075 0.15-0.075zM24.915 4.956l0.075 0.075-7.738 7.738v-1.578l6.687-6.987c0 0 0.075 0 0.075 0.075 0.301 0.225 0.601 0.451 0.902 0.676zM26.418 6.308l0.075 0.075c0.075 0.15 0.225 0.225 0.301 0.376 0.075 0.075 0.075 0.075 0.075 0.15 0.15 0.15 0.225 0.301 0.376 0.451l-7.663 7.663h-2.029l8.865-8.715zM28.371 8.938c0.15 0.301 0.301 0.601 0.451 0.902l-5.259 5.184h-1.427l6.236-6.086zM29.649 11.718c0.225 0.751 0.451 1.578 0.526 2.404 0 0.075 0 0.075 0 0.15 0 0.225 0.075 0.376 0.075 0.601 0 0.075 0 0.075 0 0.15h-3.982l3.381-3.306zM2.226 16c0-7.438 5.785-13.524 13.073-13.974v14.275c0 0 0 0.075 0.075 0.075v0.075l7.438 11.871c-1.953 1.052-4.207 1.653-6.611 1.653-7.663 0.075-13.974-6.236-13.974-13.974zM24.54 27.345l-6.536-10.443h12.321c-0.301 4.358-2.554 8.114-5.785 10.443z"></path>
</symbol>
<symbol id="icon-whiteClose" viewBox="0 0 29 32">
<path fill="#fff" style="fill: var(--color4, #fff)" d="M24.835 5.633c-5.675-5.71-14.905-5.71-20.581 0-5.673 5.71-5.673 15.001 0 20.712 2.838 2.855 6.564 4.281 10.291 4.281s7.452-1.427 10.29-4.281c5.674-5.71 5.674-15.001 0-20.712zM20.547 20.304c0.474 0.477 0.474 1.248 0 1.726-0.236 0.238-0.547 0.358-0.857 0.358s-0.621-0.12-0.857-0.358l-4.287-4.315-4.286 4.314c-0.238 0.238-0.548 0.358-0.857 0.358-0.31 0-0.621-0.12-0.857-0.358-0.474-0.477-0.474-1.25 0-1.726l4.286-4.314-4.287-4.314c-0.474-0.477-0.474-1.25 0-1.726 0.473-0.477 1.241-0.477 1.715 0l4.287 4.314 4.287-4.314c0.474-0.477 1.241-0.477 1.715 0 0.474 0.476 0.474 1.248 0 1.726l-4.287 4.314 4.287 4.315z"></path>
</symbol>
<symbol id="icon-wood" viewBox="0 0 32 32">
<path fill="#757575" style="fill: var(--color2, #757575)" d="M20.809 16.701c3.013 0.594 6.998 0.463 9.18-1.715 2.379-2.375 2.293-6.681 1.54-9.956-3.208-0.735-7.421-0.835-9.829 1.399-0.808-2.655-3.308-4.932-5.701-6.429-2.388 1.494-4.892 3.77-5.701 6.429-2.41-2.236-6.62-2.134-9.829-1.399-0.753 3.275-0.837 7.583 1.54 9.956 2.181 2.177 6.17 2.308 9.18 1.715l3.868 3.73v2.252c-1.686 0.294-3.136 1.364-3.914 2.873-3.808-1.654-8.064 1.422-7.601 5.607l0.092 0.837h24.729c0.093-0.844 0.126-1.058 0.126-1.441 0-3.936-4.061-6.555-7.634-5.003-0.778-1.51-2.229-2.579-3.915-2.873v-2.252l3.868-3.73zM29.804 11.573h-3.677l3.945-3.804c0.090 1.088 0.095 2.519-0.268 3.804zM25.477 6.63c1.114-0.23 2.287-0.225 3.223-0.152l-3.223 3.108v-2.956zM28.846 13.453c-1.414 1.641-4.157 1.806-6.322 1.594l1.654-1.594h4.668zM23.594 7.344v4.058l-2.144 2.067c-0.144-2.299 0.183-4.91 2.144-6.125zM16.941 2.992c0.586 0.498 1.258 1.143 1.83 1.885l-1.83 1.37v-3.255zM16.941 8.597l2.795-2.093c0.214 0.521 0.343 1.066 0.343 1.623 0 2.079-1.796 3.994-3.138 5.135v-4.665zM16.941 15.644c0.578-0.407 1.627-1.208 2.617-2.292 0.032 0.704 0.106 1.318 0.176 1.773l-2.792 2.692v-2.173zM6.522 6.63v2.956l-3.223-3.108c0.936-0.072 2.11-0.078 3.223 0.152zM1.927 7.769l3.945 3.804h-3.677c-0.363-1.285-0.358-2.716-0.268-3.804zM3.154 13.453h4.668l1.653 1.594c-2.155 0.211-4.905 0.050-6.322-1.594zM10.549 13.469l-2.144-2.067v-4.058c1.96 1.216 2.288 3.826 2.144 6.126zM15.058 2.992v5.543l-2.941-1.631c0.503-1.591 1.866-2.999 2.941-3.912zM15.058 10.685v2.577c-1.152-0.979-2.637-2.527-3.036-4.26l3.036 1.684zM12.266 15.125c0.069-0.455 0.143-1.069 0.176-1.773 0.99 1.084 2.039 1.885 2.617 2.293v2.173l-2.792-2.693zM19.461 27.147l0.349 1.334 1.116-0.812c2.182-1.586 5.32-0.258 5.654 2.451h-21.161c0.217-1.763 1.727-3.133 3.551-3.133 1.384 0 2.068 0.657 3.22 1.494l0.349-1.334c0.41-1.57 1.834-2.666 3.461-2.666s3.051 1.096 3.461 2.666z"></path>
</symbol>
</defs>
</svg>
