<svg width="19" height="19" viewBox="0 0 19 19" fill="none" xmlns="http://www.w3.org/2000/svg">
<path d="M17.9783 -2.90869e-05H1.03886C0.74009 -0.000594221 0.46619 0.166308 0.329616 0.432108C0.191159 0.701488 0.215459 1.02587 0.392346 1.27189L6.59825 10.0141C6.60032 10.0171 6.60258 10.0199 6.60465 10.023C6.83014 10.3274 6.95202 10.696 6.95277 11.075V18.2025C6.95145 18.4137 7.03434 18.6164 7.18316 18.7661C7.33198 18.9159 7.53429 18.9999 7.74528 18.9999C7.85265 18.9999 7.95871 18.9784 8.05779 18.9373L11.545 17.6076C11.8576 17.5123 12.065 17.2175 12.065 16.8624V11.075C12.0655 10.6962 12.1876 10.3274 12.4129 10.023C12.415 10.0199 12.4172 10.0171 12.4193 10.0141L18.625 1.27152C18.8019 1.02568 18.8262 0.701488 18.6877 0.432108C18.5512 0.166308 18.2773 -0.000594221 17.9783 -2.90869e-05ZM11.6353 9.45161C11.2887 9.92199 11.1012 10.4907 11.1001 11.075V16.7452L7.91726 17.9587V11.075C7.91613 10.4907 7.7287 9.92199 7.3819 9.45161L1.35703 0.964462H17.6603L11.6353 9.45161Z" fill="#5A575A"/>
</svg>
