<svg width="10" height="11" viewBox="0 0 10 11" fill="none" xmlns="http://www.w3.org/2000/svg">
<path d="M8.53712 1.93645C6.58621 -0.0265039 3.41347 -0.0265039 1.46256 1.93645C-0.487519 3.89939 -0.487519 7.0932 1.46256 9.05615C2.43801 10.0374 3.71902 10.5278 5.00005 10.5278C6.28108 10.5278 7.56166 10.0374 8.53712 9.05615C10.4876 7.09322 10.4876 3.89939 8.53712 1.93645ZM7.06309 6.97952C7.22608 7.14354 7.22608 7.40869 7.06309 7.57271C6.9818 7.65452 6.87509 7.69564 6.76836 7.69564C6.66165 7.69564 6.55492 7.65452 6.47364 7.57271L5.00003 6.08928L3.52684 7.57228C3.44514 7.65409 3.33842 7.69521 3.23212 7.69521C3.12541 7.69521 3.01868 7.65409 2.93739 7.57228C2.7744 7.40826 2.7744 7.1427 2.93739 6.97908L4.41058 5.49608L2.93698 4.01308C2.77399 3.84905 2.77399 3.58349 2.93698 3.41988C3.09955 3.25585 3.36343 3.25585 3.52641 3.41988L5.00001 4.90288L6.47362 3.41988C6.6366 3.25585 6.90007 3.25585 7.06305 3.41988C7.22604 3.58349 7.22604 3.84905 7.06305 4.01308L5.58945 5.49608L7.06309 6.97952Z" fill="white"/>
</svg>
