<svg width="14" height="15" viewBox="0 0 14 15" fill="none" xmlns="http://www.w3.org/2000/svg">
<g clip-path="url(#clip0)">
<path d="M7.4393 14.458H6.56067C5.85003 14.458 5.27185 13.8799 5.27185 13.1692V12.872C4.96973 12.7754 4.67619 12.6536 4.3942 12.5077L4.18354 12.7183C3.67333 13.2292 2.85605 13.2142 2.36067 12.7181L1.73966 12.0971C1.2434 11.6014 1.22913 10.7844 1.73983 10.2743L1.95032 10.0638C1.80439 9.78179 1.68257 9.48831 1.58602 9.18613H1.28879C0.578184 9.18613 0 8.60798 0 7.89734V7.01868C0 6.30804 0.578184 5.72988 1.28882 5.72988H1.58605C1.6826 5.42773 1.80441 5.13423 1.95035 4.85223L1.73969 4.6416C1.22929 4.13175 1.24338 3.31466 1.73986 2.81873L2.36091 2.1977C2.85745 1.70048 3.67454 1.68807 4.18376 2.19786L4.39422 2.40833C4.67622 2.26242 4.96975 2.14058 5.27187 2.04403V1.7468C5.27187 1.03616 5.85003 0.458008 6.5607 0.458008H7.43933C8.14997 0.458008 8.72813 1.03616 8.72813 1.7468V2.04405C9.03025 2.14058 9.32378 2.26242 9.60578 2.40836L9.81643 2.1977C10.3266 1.68686 11.1439 1.70185 11.6393 2.19789L12.2603 2.81887C12.7566 3.31458 12.7708 4.13159 12.2601 4.64174L12.0497 4.85223C12.1956 5.13423 12.3174 5.42771 12.414 5.72988H12.7112C13.4218 5.72988 14 6.30804 14 7.01868V7.89734C14 8.60798 13.4218 9.18613 12.7112 9.18613H12.414C12.3174 9.48828 12.1956 9.78179 12.0497 10.0638L12.2603 10.2744C12.7707 10.7843 12.7566 11.6014 12.2601 12.0973L11.6391 12.7183C11.1426 13.2156 10.3255 13.228 9.81624 12.7182L9.60578 12.5077C9.32378 12.6536 9.03025 12.7755 8.72813 12.872V13.1693C8.72813 13.8799 8.14997 14.458 7.4393 14.458ZM4.53132 11.6463C4.92308 11.8779 5.34472 12.053 5.78452 12.1665C5.96564 12.2132 6.09219 12.3765 6.09219 12.5636V13.1692C6.09219 13.4275 6.30238 13.6377 6.5607 13.6377H7.43933C7.69765 13.6377 7.90784 13.4275 7.90784 13.1692V12.5636C7.90784 12.3765 8.03439 12.2132 8.21551 12.1665C8.65531 12.053 9.07695 11.8779 9.4687 11.6463C9.62989 11.5509 9.83511 11.5769 9.96754 11.7093L10.3965 12.1383C10.5815 12.3234 10.8785 12.3192 11.0589 12.1385L11.6803 11.5171C11.8603 11.3373 11.8663 11.0402 11.6805 10.8546L11.2513 10.4255C11.1189 10.2931 11.093 10.0878 11.1883 9.92668C11.42 9.53496 11.595 9.11332 11.7085 8.67349C11.7552 8.49237 11.9186 8.36585 12.1056 8.36585H12.7112C12.9695 8.36585 13.1797 8.15568 13.1797 7.89737V7.0187C13.1797 6.76039 12.9695 6.55022 12.7112 6.55022H12.1056C11.9186 6.55022 11.7552 6.42368 11.7085 6.24258C11.595 5.80275 11.42 5.38111 11.1883 4.98939C11.093 4.82822 11.1189 4.62298 11.2513 4.49058L11.6803 4.06159C11.8658 3.87636 11.8609 3.57941 11.6805 3.39918L11.0591 2.7778C10.879 2.59744 10.5819 2.59216 10.3967 2.77763L9.96756 3.20679C9.83516 3.33922 9.62987 3.36514 9.46873 3.26982C9.07698 3.03814 8.65534 2.86311 8.21554 2.74961C8.03441 2.70287 7.90787 2.53952 7.90787 2.35246V1.7468C7.90787 1.48848 7.69768 1.27832 7.43936 1.27832H6.56072C6.30241 1.27832 6.09221 1.48848 6.09221 1.7468V2.35241C6.09221 2.53947 5.96567 2.70282 5.78454 2.74955C5.34475 2.86305 4.92311 3.03808 4.53135 3.26977C4.37013 3.36506 4.16492 3.33914 4.03252 3.20674L3.60355 2.77774C3.4186 2.59257 3.12156 2.59686 2.94118 2.77755L2.31973 3.39896C2.13976 3.57872 2.13374 3.87576 2.31957 4.06137L2.74873 4.49053C2.88113 4.62293 2.90705 4.82817 2.81176 4.98933C2.58007 5.38106 2.40507 5.8027 2.29157 6.24252C2.24481 6.42365 2.08146 6.55017 1.89443 6.55017H1.28882C1.0305 6.5502 0.820312 6.76036 0.820312 7.01868V7.89734C0.820312 8.15566 1.0305 8.36582 1.28882 8.36582H1.8944C2.08146 8.36582 2.24479 8.49237 2.29154 8.67346C2.40505 9.11329 2.58007 9.53493 2.81173 9.92666C2.90702 10.0878 2.8811 10.2931 2.7487 10.4255L2.31971 10.8545C2.13426 11.0397 2.1391 11.3366 2.31954 11.5169L2.94093 12.1382C3.12104 12.3186 3.41811 12.3239 3.60333 12.1384L4.03246 11.7092C4.13003 11.6117 4.333 11.5289 4.53132 11.6463Z" fill="#5A575A"/>
<path d="M6.99885 10.5041C5.31921 10.5041 3.95276 9.13766 3.95276 7.45804C3.95276 5.77843 5.31921 4.41195 6.99885 4.41195C8.6785 4.41195 10.0449 5.77843 10.0449 7.45804C10.0449 9.13766 8.6785 10.5041 6.99885 10.5041ZM6.99885 5.23226C5.77153 5.23226 4.77307 6.23075 4.77307 7.45804C4.77307 8.68534 5.77156 9.68382 6.99885 9.68382C8.22615 9.68382 9.22463 8.68534 9.22463 7.45804C9.22463 6.23075 8.22618 5.23226 6.99885 5.23226Z" fill="#5A575A"/>
</g>
<defs>
<clipPath id="clip0">
<rect width="14" height="14" fill="white" transform="translate(0 0.458008)"/>
</clipPath>
</defs>
</svg>
