<svg width="21" height="21" viewBox="0 0 21 21" fill="none" xmlns="http://www.w3.org/2000/svg">
<path d="M1.51197 0.797966C1.84797 0.965966 1.93197 1.21797 1.93197 1.55397C1.93197 7.51797 1.93197 13.482 1.93197 19.488C1.93197 19.824 1.80597 20.076 1.51197 20.244C1.42797 20.244 1.30197 20.244 1.21797 20.244C1.04997 20.16 0.881974 20.034 0.797974 19.824C0.797974 13.608 0.797974 7.43397 0.797974 1.21797C0.881974 1.04997 1.00797 0.881966 1.21797 0.797966C1.30197 0.797966 1.42797 0.797966 1.51197 0.797966Z" fill="#5A575A"/>
<path d="M19.4878 20.202C19.1518 20.034 19.0678 19.824 19.0678 19.446C19.0678 13.44 19.0678 7.43397 19.0678 1.42797C19.0678 1.09197 19.1938 0.881974 19.4878 0.755974C19.5718 0.755974 19.6978 0.755974 19.7818 0.755974C19.9498 0.839974 20.1178 0.965974 20.2018 1.17597C20.2018 7.39197 20.2018 13.566 20.2018 19.782C20.1178 19.95 19.9918 20.118 19.7818 20.202C19.6978 20.202 19.5718 20.202 19.4878 20.202Z" fill="#5A575A"/>
<path d="M13.44 11.088C11.466 11.088 9.53405 11.088 7.56005 11.088C7.56005 11.172 7.56005 11.256 7.56005 11.34C7.56005 11.886 7.56005 12.474 7.56005 13.02C7.56005 13.314 7.47605 13.524 7.18205 13.65C6.93005 13.734 6.72005 13.65 6.51005 13.44C5.71205 12.6 4.87205 11.802 4.07405 11.004C3.78005 10.71 3.78005 10.374 4.07405 10.08C4.91405 9.23997 5.71205 8.44197 6.55205 7.60197C6.84605 7.30797 7.22405 7.30797 7.43405 7.60197C7.51805 7.72797 7.56005 7.89597 7.56005 8.06397C7.56005 8.60997 7.56005 9.15597 7.56005 9.74397C7.56005 9.82797 7.56005 9.86997 7.56005 9.95397C9.53405 9.95397 11.466 9.95397 13.44 9.95397C13.44 9.61797 13.44 9.32397 13.44 8.98797C13.44 8.69397 13.44 8.35797 13.44 8.06397C13.44 7.76997 13.524 7.55997 13.818 7.43397C14.07 7.30797 14.322 7.43397 14.49 7.64397C15.33 8.48397 16.128 9.28197 16.9681 10.122C17.2621 10.416 17.2621 10.752 16.9681 11.046C16.128 11.886 15.33 12.684 14.49 13.524C14.322 13.692 14.1121 13.776 13.818 13.692C13.566 13.524 13.44 13.314 13.44 13.02C13.44 12.432 13.44 11.886 13.44 11.298C13.44 11.256 13.44 11.172 13.44 11.088Z" fill="#5A575A"/>
</svg>
